<svg xmlns="http://www.w3.org/2000/svg" viewBox="0 0 182.13 44.55"><defs><style>.cls-1{fill:#63f;}.cls-2{fill:#231f20;}</style></defs><title>Asset 1</title><g id="Layer_2" data-name="Layer 2"><g id="Layer_1-2" data-name="Layer 1"><path class="cls-1" d="M40.37,19a5.86,5.86,0,0,0-8.52-1.27,1.4,1.4,0,0,1-1.46.11L14.28,8.57a6.05,6.05,0,0,1-2.81-4A5.86,5.86,0,0,0,6.57.07,5.39,5.39,0,0,0,2.3,1.19a5.83,5.83,0,0,0,6.33,9.75,2.41,2.41,0,0,1,2.29,0l10.73,6.21a.5.5,0,0,1-.42.9L10.16,14a1.88,1.88,0,0,0-1,3.64L20.62,20a.5.5,0,0,1-.12,1L8.82,20.39a1.89,1.89,0,0,0,0,3.77l11.68-.58a.5.5,0,0,1,.12,1L9.18,26.89a1.89,1.89,0,0,0,.49,3.71,1.71,1.71,0,0,0,.49-.07l11.06-4a.5.5,0,0,1,.42.91l-10.8,6.25a2.26,2.26,0,0,1-2.17,0,6.19,6.19,0,0,0-4-.66,4.72,4.72,0,0,0-2.1.82A5.87,5.87,0,0,0,5.08,44.48,5.38,5.38,0,0,0,9.3,43.37a6,6,0,0,0,2.21-3.55A5.35,5.35,0,0,1,14,36.13l16.31-9.41a1.22,1.22,0,0,1,1.25,0l1,.59a5.85,5.85,0,0,0,8.73-4.5A5.18,5.18,0,0,0,40.37,19Z"/><path class="cls-2" d="M69.49,16.38c2.29,0,3.09.89,3.68.89.89,0,2.37-2.51,2.37-3.36,0-2.15-4.08-2.73-6.54-2.73-5.07,0-8.88,2.6-8.88,7.93,0,2.82,1.3,4.66,4.26,6.1,1.88.89,3.72,1.52,3.72,3.09,0,1.35-1,1.79-3,1.79-2.64,0-4.21-1.52-4.93-1.52-.49,0-1,.9-1,3.41s4.13,3.36,6.46,3.36c5.33,0,9.23-2.83,9.23-8.34a6.6,6.6,0,0,0-4.3-6c-1.88-.81-3.67-1.26-3.67-3C66.94,16.91,67.88,16.38,69.49,16.38Z"/><path class="cls-2" d="M93,28.79a3.36,3.36,0,0,0-.8.27,10.14,10.14,0,0,1-4.08,1c-2.92,0-4.17-1.65-4.17-5,0-5.65,2-8.65,5.87-8.65a6.13,6.13,0,0,1,3.27.94c.67.36.76.36.85.36.77,0,2.78-2.64,2.78-3.59,0-2-4-3-6.68-3-8.42,0-13,5.11-13,14.61,0,6.41,3.32,9.55,10.17,9.55,1.39,0,7.71-.67,7.71-3.27C95,31.08,94,28.79,93,28.79Z"/><path class="cls-2" d="M108.71,11.18c-9.37,0-12.06,6.81-12.06,14.12,0,6.36,3.54,10,9.95,10,7.58,0,12.06-4.89,12.06-14.08C118.66,14.85,115.12,11.18,108.71,11.18Zm-1.57,18.91c-2.42,0-3.76-1.88-3.76-5.11,0-5.73,1.65-8.56,4.79-8.56,2.42,0,3.72,1.88,3.72,5.16C111.89,27.27,110.23,30.09,107.14,30.09Z"/><path class="cls-2" d="M132.33,11.18c-9.37,0-12.06,6.81-12.06,14.12,0,6.36,3.54,10,10,10,7.58,0,12.06-4.89,12.06-14.08C142.28,14.85,138.74,11.18,132.33,11.18Zm-1.57,18.91c-2.42,0-3.76-1.88-3.76-5.11,0-5.73,1.65-8.56,4.79-8.56,2.42,0,3.72,1.88,3.72,5.16C135.51,27.27,133.85,30.09,130.76,30.09Z"/><path class="cls-2" d="M153.8,29.82a6,6,0,0,1-1.3.27c-.94,0-1.43-.44-1.3-1.7l2.69-26c0-.72-.49-1.21-2.11-1.21h-2.15c-1.66,0-2.2.44-2.33,1.34l-2.73,26.27c-.5,4.93,1.83,6.59,5.33,6.59,1.57,0,3.63-.67,3.94-2.33a12.67,12.67,0,0,0,.32-2.65C154.16,30,154.07,29.82,153.8,29.82Z"/><path class="cls-2" d="M162.68,7.5C165,7.5,166,7,166.13,6.07l.36-3.5c.09-.94-.85-1.43-3.14-1.43s-3.4.49-3.49,1.43l-.36,3.5C159.41,7,160.35,7.5,162.68,7.5Z"/><path class="cls-2" d="M166.4,29.82a6.18,6.18,0,0,1-1.31.27c-.94,0-1.43-.44-1.3-1.7l1.62-15.55c.09-.72-.76-1.39-2.56-1.39H161.6c-1.75,0-2.74.49-2.83,1.43l-1.61,15.87c-.49,4.93,1.84,6.59,5.34,6.59,1.56,0,3.63-.67,3.94-2.33a13.06,13.06,0,0,0,.31-2.65C166.75,30,166.66,29.82,166.4,29.82Z"/><path class="cls-2" d="M181,11.54H178.9l.36-3.95c.09-1.08-.63-1.75-2.42-1.75h-1c-1.57,0-2.42.49-2.64,1.62l-.85,4.08h-1.12c-1,0-1.44.67-1.62,2.24l-.09.76c-.18,1.57.18,2.24,1.17,2.24h1l-1.21,11.7c-.54,5.07,2.15,6.86,5.74,6.86,1.57,0,3.63-.67,3.94-2.33a13.06,13.06,0,0,0,.31-2.65c0-.4-.09-.54-.35-.54a6.38,6.38,0,0,1-1.62.27c-1,0-1.52-.53-1.39-1.7l1.21-11.61h2.06c1,0,1.39-.67,1.57-2.24l.09-.76C182.26,12.21,181.9,11.54,181,11.54Z"/></g></g></svg>