<?xml version="1.0" encoding="UTF-8" standalone="no"?>
<!DOCTYPE svg PUBLIC "-//W3C//DTD SVG 1.1//EN" "http://www.w3.org/Graphics/SVG/1.1/DTD/svg11.dtd">
<svg version="1.1" xmlns="http://www.w3.org/2000/svg" xmlns:xlink="http://www.w3.org/1999/xlink" preserveAspectRatio="xMidYMid meet" viewBox="-1.0000000000000036 238.4827904334642 643.9999999999999 160.55680719277322" width="300" height="73.39"><defs><path d="M113.2 300.81C112.74 301.12 112.3 301.45 111.87 301.8C110.36 302.88 108.38 303.03 106.74 302.18C101.07 298.93 55.79 272.87 50.13 269.61C45 266.52 41.42 261.42 40.25 255.55C38.35 247.22 31.5 240.93 23.03 239.74C17.7 238.85 12.24 240.28 8.03 243.68C-0.95 250.56 -2.66 263.42 4.23 272.4C10.36 280.41 21.41 282.76 30.27 277.94C32.78 276.58 35.81 276.58 38.32 277.94C42.09 280.12 72.25 297.58 76.02 299.76C76.85 300.27 77.1 301.35 76.59 302.18C76.17 302.87 75.32 303.18 74.55 302.92C70.66 301.5 39.54 290.11 35.65 288.69C32.12 287.72 28.47 289.8 27.5 293.33C26.52 296.86 28.6 300.51 32.13 301.48C36.16 302.31 68.38 308.95 72.4 309.77C73.37 309.89 74.07 310.77 73.95 311.74C73.83 312.71 72.95 313.41 71.98 313.29C67.88 313.07 35.04 311.36 30.94 311.15C27.28 311.41 24.53 314.59 24.8 318.25C25.04 321.54 27.65 324.15 30.94 324.39C35.04 324.19 67.88 322.56 71.98 322.35C72.95 322.24 73.83 322.93 73.95 323.9C74.07 324.87 73.37 325.75 72.4 325.87C68.38 326.68 36.22 333.17 32.2 333.99C28.67 334.97 26.61 338.64 27.6 342.17C28.39 345.02 30.97 346.99 33.93 347.02C34.51 347.02 35.09 346.94 35.65 346.78C39.53 345.37 70.63 334.13 74.51 332.72C75.4 332.31 76.44 332.7 76.85 333.58C77.26 334.47 76.87 335.51 75.99 335.92C72.19 338.12 41.83 355.68 38.04 357.88C35.66 359.18 32.79 359.18 30.41 357.88C26.12 355.55 21.17 354.74 16.36 355.56C13.7 355.91 11.17 356.9 8.98 358.44C-0.38 364.94 -2.69 377.8 3.81 387.15C7.07 391.85 12.14 394.98 17.8 395.8C23.07 396.65 28.46 395.23 32.63 391.9C36.63 388.8 39.38 384.38 40.39 379.42C41.29 374.03 44.48 369.3 49.14 366.46C54.87 363.15 100.72 336.7 106.45 333.39C107.81 332.58 109.49 332.58 110.85 333.39C111.2 333.6 114.01 335.25 114.36 335.46C124.21 341.11 136.77 337.7 142.42 327.85C143.86 325.33 144.75 322.54 145.04 319.65C145.76 314.94 144.59 310.13 141.8 306.26C135.41 296.86 122.6 294.42 113.2 300.81Z" id="b5LVLqG29"></path><path d="M257.21 302.42C260.34 302.42 265.54 293.6 265.54 290.61C265.54 283.06 251.2 281.02 242.56 281.02C224.74 281.02 211.36 290.16 211.36 308.89C211.36 318.8 215.92 325.26 226.32 330.32C232.93 333.45 239.4 335.66 239.4 341.18C239.4 345.92 235.88 347.47 228.86 347.47C219.58 347.47 214.06 342.13 211.53 342.13C209.81 342.13 208.02 345.29 208.02 354.11C208.02 362.93 222.53 365.92 230.72 365.92C249.45 365.92 263.15 355.97 263.15 336.61C262.88 327.16 256.9 318.82 248.04 315.53C241.44 312.68 235.15 311.1 235.15 304.99C235.32 301.16 238.62 299.29 244.28 299.29C252.33 299.29 255.14 302.42 257.21 302.42Z" id="dbdI9c4B4"></path><path d="M324.08 343.85C319.6 346.01 314.72 347.21 309.75 347.36C299.49 347.36 295.09 341.57 295.09 329.79C295.09 309.94 302.12 299.4 315.72 299.4C319.79 299.39 323.77 300.54 327.21 302.7C329.57 303.97 329.88 303.97 330.2 303.97C332.9 303.97 339.97 294.69 339.97 291.35C339.97 284.32 325.91 280.81 316.49 280.81C286.91 280.81 270.81 298.77 270.81 332.15C270.81 354.67 282.48 365.71 306.55 365.71C311.43 365.71 333.64 363.35 333.64 354.22C333.92 350.95 330.41 342.9 326.89 342.9C325.92 343.1 324.98 343.42 324.08 343.85Z" id="a1rw40k1lL"></path><path d="M339.72 330.64C339.72 352.99 352.16 365.78 374.68 365.78C401.32 365.78 417.06 348.59 417.06 316.3C417.06 293.92 404.62 281.02 382.1 281.02C349.17 281.02 339.72 304.95 339.72 330.64ZM363.37 329.51C363.37 309.38 369.17 299.43 380.2 299.43C388.71 299.43 393.27 306.04 393.27 317.57C393.27 337.56 387.44 347.47 376.58 347.47C368.08 347.47 363.37 340.86 363.37 329.51Z" id="d2uZ3SBgx"></path><path d="M422.72 330.64C422.72 352.99 435.16 365.78 457.86 365.78C484.5 365.78 500.24 348.59 500.24 316.3C500.06 293.92 487.62 281.02 465.1 281.02C432.17 281.02 422.72 304.95 422.72 330.64ZM446.37 329.51C446.37 309.38 452.17 299.43 463.2 299.43C471.71 299.43 476.27 306.04 476.27 317.57C476.27 337.56 470.44 347.47 459.58 347.47C451.08 347.47 446.37 340.86 446.37 329.51Z" id="bdQQWyTwk"></path><path d="M535.98 347.47C532.67 347.47 530.95 345.92 531.41 341.5C532.35 332.36 539.92 259.27 540.86 250.13C540.86 247.6 539.14 245.88 533.45 245.88C532.69 245.88 526.65 245.88 525.89 245.88C520.06 245.88 518.16 247.43 517.7 250.59C516.74 259.82 509.07 333.67 508.11 342.9C506.35 360.23 514.54 366.06 526.84 366.06C532.36 366.06 539.6 363.7 540.69 357.87C541.39 354.82 541.76 351.69 541.81 348.56C541.81 347.15 541.49 346.52 540.54 346.52C539.06 347.01 537.53 347.32 535.98 347.47Z" id="a3xVtGYc9n"></path><path d="M583.87 263.06C584 261.83 585.01 252 585.14 250.77C585.45 247.46 582.15 245.74 574.1 245.74C566.06 245.74 562.16 247.46 561.84 250.77C561.71 252 560.7 261.83 560.57 263.06C560.26 266.33 563.56 268.09 571.75 268.09C579.9 268.09 583.41 266.33 583.87 263.06Z" id="b2XZJY8cca"></path><path d="M580.22 347.47C576.91 347.47 575.19 345.92 575.65 341.5C576.22 336.03 580.77 292.32 581.34 286.85C581.66 284.32 578.67 281.97 572.35 281.97C571.91 281.97 568.39 281.97 567.95 281.97C561.8 281.97 558.33 283.69 558.01 286.99C557.44 292.57 552.92 337.18 552.35 342.76C550.63 360.08 558.82 365.92 571.12 365.92C576.6 365.92 583.87 363.56 584.96 357.73C585.64 354.67 586.01 351.55 586.05 348.42C586.05 347.15 585.73 346.52 584.82 346.52C583.32 347 581.78 347.32 580.22 347.47Z" id="c4PcS4NHvq"></path><path d="M628.75 282.29C629.5 273.96 629.93 269.33 630.01 268.41C630.33 264.61 627.8 262.26 621.51 262.26C621.16 262.26 618.34 262.26 617.99 262.26C612.48 262.26 609.49 263.98 608.72 267.95C608.52 268.9 607.52 273.68 605.73 282.29C603.37 282.29 602.06 282.29 601.79 282.29C598.28 282.29 596.73 284.64 596.1 290.16C596.07 290.42 595.82 292.56 595.78 292.83C595.15 298.34 596.42 300.7 599.9 300.7C600.13 300.7 601.3 300.7 603.41 300.7C600.86 325.37 599.44 339.07 599.16 341.81C597.26 359.63 606.71 365.92 619.33 365.92C624.84 365.92 632.08 363.56 633.17 357.73C633.85 354.67 634.22 351.55 634.26 348.42C634.26 347.01 633.95 346.52 633.03 346.52C631.18 347.08 629.27 347.4 627.34 347.47C623.83 347.47 622 345.61 622.46 341.5C622.74 338.78 624.16 325.18 626.71 300.7C631.05 300.7 633.46 300.7 633.95 300.7C637.46 300.7 638.83 298.34 639.46 292.83C639.49 292.56 639.75 290.42 639.78 290.16C640.55 284.64 639.29 282.29 636.12 282.29C635.14 282.29 632.68 282.29 628.75 282.29Z" id="b2Ew9lqExh"></path></defs><g><g><use xlink:href="#b5LVLqG29" opacity="1" fill="#f2f2f2" fill-opacity="1"></use><g><use xlink:href="#b5LVLqG29" opacity="1" fill-opacity="0" stroke="#000000" stroke-width="1" stroke-opacity="0"></use></g></g><g><use xlink:href="#dbdI9c4B4" opacity="1" fill="#f2f2f2" fill-opacity="1"></use><g><use xlink:href="#dbdI9c4B4" opacity="1" fill-opacity="0" stroke="#000000" stroke-width="1" stroke-opacity="0"></use></g></g><g><use xlink:href="#a1rw40k1lL" opacity="1" fill="#f2f2f2" fill-opacity="1"></use><g><use xlink:href="#a1rw40k1lL" opacity="1" fill-opacity="0" stroke="#000000" stroke-width="1" stroke-opacity="0"></use></g></g><g><use xlink:href="#d2uZ3SBgx" opacity="1" fill="#f2f2f2" fill-opacity="1"></use><g><use xlink:href="#d2uZ3SBgx" opacity="1" fill-opacity="0" stroke="#000000" stroke-width="1" stroke-opacity="0"></use></g></g><g><use xlink:href="#bdQQWyTwk" opacity="1" fill="#f2f2f2" fill-opacity="1"></use><g><use xlink:href="#bdQQWyTwk" opacity="1" fill-opacity="0" stroke="#000000" stroke-width="1" stroke-opacity="0"></use></g></g><g><use xlink:href="#a3xVtGYc9n" opacity="1" fill="#f2f2f2" fill-opacity="1"></use><g><use xlink:href="#a3xVtGYc9n" opacity="1" fill-opacity="0" stroke="#000000" stroke-width="1" stroke-opacity="0"></use></g></g><g><use xlink:href="#b2XZJY8cca" opacity="1" fill="#f2f2f2" fill-opacity="1"></use><g><use xlink:href="#b2XZJY8cca" opacity="1" fill-opacity="0" stroke="#000000" stroke-width="1" stroke-opacity="0"></use></g></g><g><use xlink:href="#c4PcS4NHvq" opacity="1" fill="#f2f2f2" fill-opacity="1"></use><g><use xlink:href="#c4PcS4NHvq" opacity="1" fill-opacity="0" stroke="#000000" stroke-width="1" stroke-opacity="0"></use></g></g><g><use xlink:href="#b2Ew9lqExh" opacity="1" fill="#f2f2f2" fill-opacity="1"></use><g><use xlink:href="#b2Ew9lqExh" opacity="1" fill-opacity="0" stroke="#000000" stroke-width="1" stroke-opacity="0"></use></g></g></g></svg>