<?xml version="1.0" encoding="UTF-8" standalone="no"?>
<!DOCTYPE svg PUBLIC "-//W3C//DTD SVG 1.1//EN" "http://www.w3.org/Graphics/SVG/1.1/DTD/svg11.dtd">
<svg version="1.1" xmlns="http://www.w3.org/2000/svg" xmlns:xlink="http://www.w3.org/1999/xlink" preserveAspectRatio="xMidYMid meet" viewBox="-1.0000000000000036 237.73652177674774 643.9999999999999 160.5568071927732" width="640" height="156.56"><defs><path d="M113.2 300.07C112.74 300.38 112.3 300.71 111.87 301.05C110.36 302.14 108.38 302.29 106.74 301.44C101.07 298.18 55.79 272.12 50.13 268.86C45 265.78 41.42 260.67 40.25 254.81C38.35 246.47 31.5 240.18 23.03 239C17.7 238.1 12.24 239.54 8.03 242.93C-0.95 249.81 -2.66 262.67 4.23 271.65C10.36 279.66 21.41 282.01 30.27 277.19C32.78 275.84 35.81 275.84 38.32 277.19C42.09 279.37 72.25 296.83 76.02 299.01C76.85 299.52 77.1 300.61 76.59 301.43C76.17 302.12 75.32 302.43 74.55 302.18C70.66 300.75 39.54 289.37 35.65 287.94C32.12 286.97 28.47 289.05 27.5 292.58C26.52 296.12 28.6 299.77 32.13 300.74C36.16 301.56 68.38 308.2 72.4 309.03C73.37 309.15 74.07 310.03 73.95 311C73.83 311.97 72.95 312.66 71.98 312.54C67.88 312.33 35.04 310.61 30.94 310.4C27.28 310.67 24.53 313.85 24.8 317.51C25.04 320.79 27.65 323.41 30.94 323.65C35.04 323.44 67.88 321.81 71.98 321.61C72.95 321.49 73.83 322.18 73.95 323.15C74.07 324.13 73.37 325.01 72.4 325.12C68.38 325.93 36.22 332.43 32.2 333.24C28.67 334.23 26.61 337.89 27.6 341.43C28.39 344.27 30.97 346.25 33.93 346.28C34.51 346.28 35.09 346.2 35.65 346.03C39.53 344.63 70.63 333.38 74.51 331.97C75.4 331.57 76.44 331.95 76.85 332.84C77.26 333.72 76.87 334.77 75.99 335.17C72.19 337.37 41.83 354.94 38.04 357.13C35.66 358.43 32.79 358.43 30.41 357.13C26.12 354.81 21.17 353.99 16.36 354.82C13.7 355.17 11.17 356.15 8.98 357.7C-0.38 364.2 -2.69 377.05 3.81 386.41C7.07 391.1 12.14 394.23 17.8 395.05C23.07 395.9 28.46 394.49 32.63 391.15C36.63 388.06 39.38 383.63 40.39 378.68C41.29 373.29 44.48 368.55 49.14 365.71C54.87 362.4 100.72 335.95 106.45 332.64C107.81 331.84 109.49 331.84 110.85 332.64C111.2 332.85 114.01 334.51 114.36 334.72C124.21 340.36 136.77 336.95 142.42 327.1C143.86 324.58 144.75 321.79 145.04 318.9C145.76 314.19 144.59 309.38 141.8 305.51C135.41 296.11 122.6 293.67 113.2 300.07Z" id="b45Q5rCp"></path><path d="M257.21 302.42C260.34 302.42 265.54 293.6 265.54 290.61C265.54 283.06 251.2 281.02 242.56 281.02C224.74 281.02 211.36 290.16 211.36 308.89C211.36 318.8 215.92 325.26 226.32 330.32C232.93 333.45 239.4 335.66 239.4 341.18C239.4 345.92 235.88 347.47 228.86 347.47C219.58 347.47 214.06 342.13 211.53 342.13C209.81 342.13 208.02 345.29 208.02 354.11C208.02 362.93 222.53 365.92 230.72 365.92C249.45 365.92 263.15 355.97 263.15 336.61C262.88 327.16 256.9 318.82 248.04 315.53C241.44 312.68 235.15 311.1 235.15 304.99C235.32 301.16 238.62 299.29 244.28 299.29C252.33 299.29 255.14 302.42 257.21 302.42Z" id="d1VzbXylVs"></path><path d="M324.08 343.85C319.6 346.01 314.72 347.21 309.75 347.36C299.49 347.36 295.09 341.57 295.09 329.79C295.09 309.94 302.12 299.4 315.72 299.4C319.79 299.39 323.77 300.54 327.21 302.7C329.57 303.97 329.88 303.97 330.2 303.97C332.9 303.97 339.97 294.69 339.97 291.35C339.97 284.32 325.91 280.81 316.49 280.81C286.91 280.81 270.81 298.77 270.81 332.15C270.81 354.67 282.48 365.71 306.55 365.71C311.43 365.71 333.64 363.35 333.64 354.22C333.92 350.95 330.41 342.9 326.89 342.9C325.92 343.1 324.98 343.42 324.08 343.85Z" id="dyxS1atUS"></path><path d="M339.72 330.64C339.72 352.99 352.16 365.78 374.68 365.78C401.32 365.78 417.06 348.59 417.06 316.3C417.06 293.92 404.62 281.02 382.1 281.02C349.17 281.02 339.72 304.95 339.72 330.64ZM363.37 329.51C363.37 309.38 369.17 299.43 380.2 299.43C388.71 299.43 393.27 306.04 393.27 317.57C393.27 337.56 387.44 347.47 376.58 347.47C368.08 347.47 363.37 340.86 363.37 329.51Z" id="b1so7ueIk"></path><path d="M422.72 330.64C422.72 352.99 435.16 365.78 457.86 365.78C484.5 365.78 500.24 348.59 500.24 316.3C500.06 293.92 487.62 281.02 465.1 281.02C432.17 281.02 422.72 304.95 422.72 330.64ZM446.37 329.51C446.37 309.38 452.17 299.43 463.2 299.43C471.71 299.43 476.27 306.04 476.27 317.57C476.27 337.56 470.44 347.47 459.58 347.47C451.08 347.47 446.37 340.86 446.37 329.51Z" id="beTR78Yp"></path><path d="M535.98 347.47C532.67 347.47 530.95 345.92 531.41 341.5C532.35 332.36 539.92 259.27 540.86 250.13C540.86 247.6 539.14 245.88 533.45 245.88C532.69 245.88 526.65 245.88 525.89 245.88C520.06 245.88 518.16 247.43 517.7 250.59C516.74 259.82 509.07 333.67 508.11 342.9C506.35 360.23 514.54 366.06 526.84 366.06C532.36 366.06 539.6 363.7 540.69 357.87C541.39 354.82 541.76 351.69 541.81 348.56C541.81 347.15 541.49 346.52 540.54 346.52C539.06 347.01 537.53 347.32 535.98 347.47Z" id="adeKvz4nk"></path><path d="M583.87 263.06C584 261.83 585.01 252 585.14 250.77C585.45 247.46 582.15 245.74 574.1 245.74C566.06 245.74 562.16 247.46 561.84 250.77C561.71 252 560.7 261.83 560.57 263.06C560.26 266.33 563.56 268.09 571.75 268.09C579.9 268.09 583.41 266.33 583.87 263.06Z" id="b2lmUNC8u"></path><path d="M580.22 347.47C576.91 347.47 575.19 345.92 575.65 341.5C576.22 336.03 580.77 292.32 581.34 286.85C581.66 284.32 578.67 281.97 572.35 281.97C571.91 281.97 568.39 281.97 567.95 281.97C561.8 281.97 558.33 283.69 558.01 286.99C557.44 292.57 552.92 337.18 552.35 342.76C550.63 360.08 558.82 365.92 571.12 365.92C576.6 365.92 583.87 363.56 584.96 357.73C585.64 354.67 586.01 351.55 586.05 348.42C586.05 347.15 585.73 346.52 584.82 346.52C583.32 347 581.78 347.32 580.22 347.47Z" id="d2BngaUaee"></path><path d="M628.75 282.29C629.5 273.96 629.93 269.33 630.01 268.41C630.33 264.61 627.8 262.26 621.51 262.26C621.16 262.26 618.34 262.26 617.99 262.26C612.48 262.26 609.49 263.98 608.72 267.95C608.52 268.9 607.52 273.68 605.73 282.29C603.37 282.29 602.06 282.29 601.79 282.29C598.28 282.29 596.73 284.64 596.1 290.16C596.07 290.42 595.82 292.56 595.78 292.83C595.15 298.34 596.42 300.7 599.9 300.7C600.13 300.7 601.3 300.7 603.41 300.7C600.86 325.37 599.44 339.07 599.16 341.81C597.26 359.63 606.71 365.92 619.33 365.92C624.84 365.92 632.08 363.56 633.17 357.73C633.85 354.67 634.22 351.55 634.26 348.42C634.26 347.01 633.95 346.52 633.03 346.52C631.18 347.08 629.27 347.4 627.34 347.47C623.83 347.47 622 345.61 622.46 341.5C622.74 338.78 624.16 325.18 626.71 300.7C631.05 300.7 633.46 300.7 633.95 300.7C637.46 300.7 638.83 298.34 639.46 292.83C639.49 292.56 639.75 290.42 639.78 290.16C640.55 284.64 639.29 282.29 636.12 282.29C635.14 282.29 632.68 282.29 628.75 282.29Z" id="b5LJm0P7YE"></path></defs><g><g><use xlink:href="#b45Q5rCp" opacity="1" fill="#0a6347" fill-opacity="1"></use><g><use xlink:href="#b45Q5rCp" opacity="1" fill-opacity="0" stroke="#000000" stroke-width="1" stroke-opacity="0"></use></g></g><g><use xlink:href="#d1VzbXylVs" opacity="1" fill="#231f20" fill-opacity="1"></use><g><use xlink:href="#d1VzbXylVs" opacity="1" fill-opacity="0" stroke="#000000" stroke-width="1" stroke-opacity="0"></use></g></g><g><use xlink:href="#dyxS1atUS" opacity="1" fill="#231f20" fill-opacity="1"></use><g><use xlink:href="#dyxS1atUS" opacity="1" fill-opacity="0" stroke="#000000" stroke-width="1" stroke-opacity="0"></use></g></g><g><use xlink:href="#b1so7ueIk" opacity="1" fill="#231f20" fill-opacity="1"></use><g><use xlink:href="#b1so7ueIk" opacity="1" fill-opacity="0" stroke="#000000" stroke-width="1" stroke-opacity="0"></use></g></g><g><use xlink:href="#beTR78Yp" opacity="1" fill="#231f20" fill-opacity="1"></use><g><use xlink:href="#beTR78Yp" opacity="1" fill-opacity="0" stroke="#000000" stroke-width="1" stroke-opacity="0"></use></g></g><g><use xlink:href="#adeKvz4nk" opacity="1" fill="#231f20" fill-opacity="1"></use><g><use xlink:href="#adeKvz4nk" opacity="1" fill-opacity="0" stroke="#000000" stroke-width="1" stroke-opacity="0"></use></g></g><g><use xlink:href="#b2lmUNC8u" opacity="1" fill="#231f20" fill-opacity="1"></use><g><use xlink:href="#b2lmUNC8u" opacity="1" fill-opacity="0" stroke="#000000" stroke-width="1" stroke-opacity="0"></use></g></g><g><use xlink:href="#d2BngaUaee" opacity="1" fill="#231f20" fill-opacity="1"></use><g><use xlink:href="#d2BngaUaee" opacity="1" fill-opacity="0" stroke="#000000" stroke-width="1" stroke-opacity="0"></use></g></g><g><use xlink:href="#b5LJm0P7YE" opacity="1" fill="#231f20" fill-opacity="1"></use><g><use xlink:href="#b5LJm0P7YE" opacity="1" fill-opacity="0" stroke="#000000" stroke-width="1" stroke-opacity="0"></use></g></g></g></svg>