<?xml version="1.0" encoding="UTF-8" standalone="no"?>
<!DOCTYPE svg PUBLIC "-//W3C//DTD SVG 1.1//EN" "http://www.w3.org/Graphics/SVG/1.1/DTD/svg11.dtd">
<svg version="1.1" xmlns="http://www.w3.org/2000/svg" xmlns:xlink="http://www.w3.org/1999/xlink" preserveAspectRatio="xMidYMid meet" viewBox="-56.491099356188315 -610.2194476297874 841.2122444507635 676.5" width="836.71" height="672"><defs><path d="M-54.99 -608.72L780 -608.72L780 63.28L-54.99 63.28L-54.99 -608.72Z" id="adrHOixwL"></path><path d="M680.19 -159.89C680.19 -149.42 637.92 -140.93 585.78 -140.93C533.63 -140.93 491.36 -149.42 491.36 -159.89C491.36 -170.36 533.63 -178.85 585.78 -178.85C637.92 -178.85 680.19 -170.36 680.19 -159.89Z" id="d1NiVjrmfg"></path><path d="M230.42 -308.88C230.42 -308.87 230.42 -308.8 230.42 -308.79C230.42 -308.79 234.89 -292.27 236.98 -288.8C237.59 -287.8 238.28 -286.71 238.96 -285.64C238.82 -284.86 238.82 -284.06 238.96 -283.27C239.59 -279.59 240.35 -274.52 240.01 -273.41C239.66 -272.3 240.43 -269.52 239.22 -268.56C238.01 -267.6 236.77 -265.92 240.47 -263.7C240.47 -263.7 241.17 -261.83 240.54 -261.41C240.47 -261.36 240.54 -261.26 240.72 -261.12C239.7 -258.11 238.21 -253.22 239.14 -252.88C239.65 -252.68 241.04 -253.41 242.57 -254.38C242.61 -254.19 242.64 -253.97 242.68 -253.76C242.92 -252.13 243.3 -250.53 243.8 -248.96C244.48 -247.46 245.16 -244.91 244.8 -244.07C244.43 -243.24 245.79 -241.37 245.47 -240.64C245.16 -239.9 246.53 -237.52 246.53 -237.52C246.53 -237.52 247.88 -232.89 247.83 -231.32C247.77 -229.76 249.3 -219.67 249.3 -219.67C249.3 -219.67 247.72 -214.46 248.51 -212.95C249.3 -211.44 249.81 -206.24 248.51 -204.31C247.21 -202.38 245.57 -198.12 246.1 -196.98C246.63 -195.83 245.36 -181.67 248.56 -175.84C248.96 -173.67 249.26 -171.48 249.45 -169.28C249.45 -167.7 251.96 -163.51 251.96 -163.51C251.96 -163.51 250.44 -157.19 254.17 -156.12C254.42 -156.04 254.69 -155.99 254.96 -155.97C255.07 -155.28 254.98 -154.57 254.69 -153.93C254.05 -153.05 253.6 -152.05 253.36 -150.99C253.36 -150.99 253.36 -150.99 253.36 -150.99C253.31 -150.79 253.33 -150.58 253.43 -150.4C253.85 -149.93 255.01 -143.68 255.01 -143.68C255.01 -143.68 256.69 -136.66 265.91 -138.37C265.91 -138.37 272.14 -138.74 271.62 -140.93C271.45 -141.65 271.22 -142.36 270.94 -143.04C270.72 -143.49 270.52 -143.95 270.35 -144.41C270.25 -144.93 268.94 -146.39 268.84 -147.38C268.74 -148.37 267.9 -150.3 268.05 -150.92C268.2 -151.55 266.63 -156.02 266.52 -157.01C266.39 -157.71 266.2 -158.38 265.93 -159.04C265.96 -159.05 266.23 -159.18 266.26 -159.19C266.26 -159.19 267.1 -163.88 266.37 -165.59C266.37 -165.59 262.75 -169.54 262.75 -169.54C262.75 -169.54 263.17 -181.05 262.65 -182.61C262.65 -182.61 262.91 -190.1 262.91 -190.1C262.91 -190.1 264.69 -198.49 264.59 -200.37C264.53 -201.54 264.71 -202.71 265.11 -203.81C265.11 -203.81 266.21 -216.14 266.94 -217.71C266.94 -217.71 268.52 -234.57 268.52 -234.57C268.57 -234.43 268.96 -233.3 269.01 -233.16C269.7 -231.05 270.52 -228.99 271.46 -226.98C271.86 -226.34 273.04 -224.32 274.05 -222.63C274.2 -222.38 275.4 -220.36 275.55 -220.1C275.55 -220.1 276.23 -217.65 275.75 -216.15C275.75 -216.15 280.63 -206.53 280.63 -206.53C280.28 -205.85 280.1 -205.1 280.1 -204.34C280.25 -203.55 278.48 -201.06 278.48 -201.06C278.48 -201.06 277.8 -198.83 278.22 -198.04C278.64 -197.26 277.54 -192.63 277.54 -192.63C277.54 -192.63 275.75 -182.43 275.33 -181.23C274.91 -180.03 275.55 -171.81 275.55 -171.81C275.55 -171.81 272.26 -163.4 273.78 -160.6C273.85 -159.57 273.85 -157.99 273.45 -157.35C272.91 -156.49 273.06 -153.34 273.12 -152.47C273.12 -152.32 273.12 -152.24 273.12 -152.24C273.12 -152.24 271.33 -149.87 273.59 -148.91C275.84 -147.94 283.49 -147.25 283.49 -147.25C283.49 -147.25 290.77 -145.16 294.28 -144.59C297.79 -144.02 305.13 -144.23 305.65 -146.36C305.83 -147.03 305.9 -147.72 305.84 -148.4C305.74 -149.28 305.19 -150.05 304.39 -150.42C302.24 -151.28 300.03 -152.01 297.79 -152.61C297.79 -152.61 294.33 -153.4 294.01 -154.9C294.01 -154.9 288.77 -160.58 288.77 -160.58C288.77 -160.58 288.72 -160.87 288.61 -161.26C288.62 -161.26 288.68 -161.26 288.77 -161.26C288.63 -161.41 288.55 -161.49 288.53 -161.5C288.29 -162.29 287.9 -163.33 287.41 -163.14C287.41 -163.14 287.41 -163.14 287.41 -163.14C287.11 -163.71 287.32 -164.43 287.9 -164.74C287.92 -164.75 287.93 -164.76 287.95 -164.76C289.84 -165.8 290.99 -169.08 290.46 -172.62C289.93 -176.16 289.84 -175.53 290.94 -177.56C291.62 -179.1 291.89 -180.78 291.73 -182.45C292.02 -183.54 294.34 -192.18 294.63 -193.26C295.08 -194.59 295.36 -195.97 295.46 -197.37C295.51 -198.47 295.8 -199.55 296.3 -200.53C296.3 -200.53 297.61 -208.03 298.77 -209.74C298.77 -209.74 297.98 -217.5 297.98 -217.5C297.98 -217.5 296.2 -226.87 296.3 -231.14C296.3 -231.14 291.69 -250.24 291.69 -250.24C291.08 -251.2 290.83 -252.34 290.96 -253.47C291.06 -254.35 290.5 -255.79 289.88 -257.08C289.86 -257.12 289.7 -257.44 289.68 -257.48C289.92 -257.79 290.21 -258.06 290.54 -258.27C291.84 -259.06 292.45 -261.14 292.45 -262.6C290.67 -266.81 276.38 -300.5 274.59 -304.71C274.59 -304.83 282.86 -321.73 282.84 -321.86C282.35 -324.63 277.67 -331.99 277.67 -331.99C277.67 -331.99 277.67 -331.99 277.67 -331.99C277.63 -332.08 277.56 -332.16 277.47 -332.22C276.42 -332.7 272.87 -334.71 272.87 -334.71C270.08 -338.16 267.46 -338.87 265.76 -338.85C265.22 -338.85 264.69 -338.77 264.18 -338.6C263.99 -338.54 263.82 -338.47 263.65 -338.39C263.64 -338.32 263.58 -337.77 263.57 -337.7C263.42 -339.29 263.55 -340.89 263.94 -342.44C263.98 -342.58 264.02 -342.72 264.05 -342.85C264.31 -342.85 264.57 -342.85 264.84 -342.85C271.87 -342.83 277.59 -348.51 277.62 -355.55C277.62 -355.55 277.62 -355.55 277.62 -355.55C277.62 -356.74 277.45 -357.92 277.13 -359.06C277.12 -359.08 277.1 -359.14 277.06 -359.25C277.3 -359.35 277.43 -359.41 277.46 -359.42C279.04 -360 281.02 -359.01 282.3 -360.07C282.76 -360.53 283.1 -361.1 283.27 -361.74C283.62 -362.58 283.86 -363.47 283.97 -364.38C283.97 -364.54 283.97 -364.7 283.97 -364.86C283.97 -364.9 283.97 -364.95 283.97 -365C283.97 -365.06 283.97 -365.11 283.97 -365.17C283.97 -365.24 283.97 -365.31 283.97 -365.39C283.97 -365.46 283.97 -365.39 283.97 -365.39C283.9 -365.97 283.66 -366.51 283.29 -366.97C282.45 -367.95 281.05 -368.18 279.99 -368.9C279.13 -369.57 278.41 -370.41 277.88 -371.37C277.36 -372.33 276.66 -373.18 275.84 -373.89C274.98 -374.61 273.8 -374.8 272.76 -374.38C272.46 -374.17 272.11 -374.01 271.75 -373.9C271.36 -373.9 270.98 -374 270.64 -374.2C267 -375.9 262.74 -375.6 258.79 -375.1C257.18 -374.97 255.61 -374.59 254.12 -373.97C252.61 -373.35 251.46 -372.1 250.96 -370.55C250.63 -369.33 250.88 -368 250.49 -366.79C250.22 -366 249.7 -365.27 249.37 -364.48C249.21 -364.06 249.11 -363.62 249.07 -363.17C249.07 -363.17 249.07 -363.17 249.07 -363.17C249.07 -363.17 249.07 -363.09 249.07 -363.05C248.94 -361.25 249.64 -359.36 249.98 -357.52C250.44 -355 250.21 -352.25 251.29 -349.87C251.4 -349.58 251.54 -349.29 251.7 -349.03C251.32 -348.24 250.91 -347.4 250.52 -346.62C249.93 -346.79 248.15 -347.18 248.08 -345.62C248.07 -344.35 247.77 -343.09 247.21 -341.95C247.13 -341.89 247.04 -341.82 246.95 -341.77C246.75 -341.68 246.64 -341.47 246.66 -341.26C246.66 -341.26 246.66 -341.26 246.66 -341.26C246.54 -341.16 246.47 -341.11 246.45 -341.1C246.36 -341.09 246.28 -341.06 246.2 -341.01C246.09 -341.2 245.73 -341.22 244.57 -339.84C243.04 -338.24 241.27 -336.89 239.34 -335.81C239.34 -335.81 231.58 -330.4 231.16 -327.91C230.74 -325.42 228.15 -314.55 229.48 -310.94C229.75 -310.24 230.07 -309.55 230.42 -308.88ZM263.54 -337.34C263.54 -337.34 263.54 -337.4 263.54 -337.43C263.55 -337.43 263.58 -337.41 263.64 -337.38C263.59 -337.36 263.56 -337.35 263.54 -337.34ZM284.62 -160.36C284.41 -160.27 284.19 -160.23 283.96 -160.23C283.96 -160.23 284.62 -160.36 284.62 -160.36Z" id="l160Kv48UG"></path><linearGradient id="gradientc2JdpDxLXt" gradientUnits="userSpaceOnUse" x1="267.48" y1="-138.08" x2="267.48" y2="-375.44"><stop style="stop-color: #808080;stop-opacity: 0.25" offset="0%"></stop><stop style="stop-color: #808080;stop-opacity: 0.12" offset="54%"></stop><stop style="stop-color: #808080;stop-opacity: 0.1" offset="100%"></stop></linearGradient><path d="M255.99 -143.63C255.99 -143.63 254.85 -149.84 254.41 -150.31C254.31 -150.49 254.28 -150.7 254.34 -150.9C254.34 -150.9 254.34 -150.9 254.34 -150.9C254.58 -151.95 255.02 -152.94 255.65 -153.82C256.22 -154.49 255.75 -157.29 255.75 -157.29C256.81 -157.56 265.25 -159.71 266.31 -159.98C266.76 -158.98 267.11 -157.94 267.34 -156.87C267.46 -155.89 269 -151.44 268.85 -150.82C268.69 -150.2 269.53 -148.28 269.64 -147.3C269.75 -146.31 271.03 -144.86 271.14 -144.35C271.3 -143.88 271.49 -143.42 271.71 -142.98C271.99 -142.3 272.21 -141.6 272.38 -140.88C272.91 -138.71 266.76 -138.35 266.76 -138.35C257.65 -136.64 258.14 -142.57 255.99 -143.63Z" id="aTcb4mbtd"></path><path d="M255.99 -143.63C255.99 -143.63 254.85 -149.84 254.41 -150.31C254.31 -150.49 254.28 -150.7 254.34 -150.9C254.56 -150.27 256.31 -145.21 256.53 -144.58C256.53 -144.58 258.35 -140.79 265.07 -141.37C268.9 -141.69 270.78 -142.4 271.7 -142.95C271.98 -142.27 272.2 -141.57 272.37 -140.85C272.91 -138.71 266.76 -138.35 266.76 -138.35C257.65 -136.64 258.14 -142.57 255.99 -143.63Z" id="d2vnPIeAoH"></path><path d="M259.66 -148.19C259.66 -148.19 261.95 -148.13 262.1 -150C262.1 -150 259.66 -148.19 259.66 -148.19Z" id="a51cacOWx"></path><path d="M296.83 -200.21C296.35 -199.22 296.08 -198.14 296.04 -197.05C295.96 -195.65 295.69 -194.28 295.25 -192.95C294.95 -191.88 292.56 -183.31 292.26 -182.24C292.42 -180.58 292.14 -178.91 291.47 -177.38C290.38 -175.36 290.49 -175.98 291 -172.46C291.51 -168.94 290.38 -165.68 288.52 -164.65C286.65 -163.61 289.35 -161.18 289.35 -161.18C289.35 -161.18 277.44 -157.97 274.95 -159.94C272.46 -161.9 276.25 -171.63 276.25 -171.63C276.25 -171.63 275.63 -179.81 276.04 -181C276.45 -182.19 278.22 -192.34 278.22 -192.34C278.22 -192.34 279.31 -196.94 278.89 -197.72C278.47 -198.49 279.15 -200.72 279.15 -200.72C279.15 -200.72 280.91 -203.21 280.73 -203.98C280.73 -204.74 280.91 -205.48 281.25 -206.16C281.25 -206.16 275.97 -214.23 276.43 -215.73C276.43 -215.73 276.23 -219.68 276.23 -219.68C276.23 -219.68 275.56 -220.83 274.76 -222.2C273.78 -223.88 272.59 -225.89 272.19 -226.52C271.26 -228.52 270.46 -230.57 269.78 -232.67C269.73 -232.81 269.34 -233.93 269.29 -234.07C269.29 -234.07 268.5 -218.85 267.71 -217.31C267.71 -217.31 265.9 -203.48 265.9 -203.48C265.5 -202.39 265.32 -201.23 265.38 -200.07C265.48 -198.15 263.72 -189.79 263.72 -189.79C263.72 -189.79 262.93 -183.89 263.47 -182.34C264 -180.78 263.57 -169.35 263.57 -169.35C263.57 -169.35 266.41 -167.12 267.14 -165.4C267.87 -163.67 267.04 -159.03 267.04 -159.03C267.04 -159.03 258.76 -154.89 255.07 -155.98C251.39 -157.07 252.9 -163.33 252.9 -163.33C252.9 -163.33 250.42 -167.47 250.42 -169.07C250.24 -171.26 249.94 -173.44 249.54 -175.6C246.38 -181.4 247.62 -195.47 247.11 -196.61C246.6 -197.76 248.19 -201.99 249.48 -203.91C250.77 -205.82 250.27 -211.02 249.48 -212.5C248.69 -213.99 250.27 -219.18 250.27 -219.18C250.27 -219.18 248.77 -229.22 248.82 -230.77C248.88 -232.32 247.53 -236.93 247.53 -236.93C247.53 -236.93 246.19 -239.3 246.49 -240.04C246.8 -240.77 245.46 -242.63 245.82 -243.45C246.19 -244.27 245.51 -246.82 244.83 -248.32C244.34 -249.87 243.97 -251.45 243.73 -253.06C243.41 -254.84 243.18 -256.42 243.18 -256.42C243.75 -256.87 246.6 -259.17 251.72 -263.3L273.06 -268.89L281.15 -271.52C285.84 -264.13 288.44 -260.03 288.96 -259.2C288.96 -259.2 289.75 -257.92 290.49 -256.43C291.1 -255.15 291.65 -253.72 291.55 -252.84C291.42 -251.72 291.68 -250.58 292.28 -249.63C292.28 -249.63 296.93 -234.88 296.83 -230.67C296.83 -230.67 298.49 -217.1 298.49 -217.1C298.49 -217.1 300.4 -211.07 299.26 -209.37C298.13 -207.66 297.32 -202.04 296.83 -200.21Z" id="e3jMElhn0o"></path><path d="M263.13 -202.79C265.82 -200.05 251.34 -201.65 251.34 -201.65C253.7 -201.88 260.45 -205.53 263.13 -202.79Z" id="eDHMHzBk4"></path><path d="M250.38 -194.05C250.38 -194.05 256.46 -200.11 256.46 -200.11C255.24 -198.89 247.22 -194.88 250.38 -194.05Z" id="l1WxVKXcj"></path><path d="M281.56 -203.57C283.08 -202.78 283.99 -204.6 283.99 -204.6C283.51 -204.39 280.04 -204.35 281.56 -203.57Z" id="h18tcVzvQQ"></path><path d="M279.7 -197.82C281.93 -196.18 288.91 -203.42 288.91 -203.42C288.86 -203.15 277.47 -199.47 279.7 -197.82Z" id="e5kdjW491"></path><path d="M260.19 -173.23C258.15 -171.39 255.27 -170.81 252.68 -171.74C254.39 -171.99 263.92 -176.39 260.19 -173.23Z" id="a577vjA88m"></path><path d="M261.38 -165.48C264.54 -165.89 257.39 -168.27 257.39 -168.27C258.19 -167.71 258.22 -165.06 261.38 -165.48Z" id="b4vS7JAsnv"></path><path d="M262.26 -163.56C262.41 -162.1 255.79 -159.6 255.27 -160.35C254.97 -160.76 254.79 -161.24 254.75 -161.75C255.32 -161.9 262.1 -165.01 262.26 -163.56Z" id="bBjL2t36p"></path><path d="M276.7 -165.48C277.49 -165.52 285.29 -168.01 286.84 -165.78C286.84 -165.78 276.7 -165.48 276.7 -165.48Z" id="boN4ZKz8e"></path><path d="M286.43 -164.59C287.77 -163.97 283.74 -164.02 283.74 -164.02C284.28 -164.14 285.08 -165.21 286.43 -164.59Z" id="a5psh5RfX1"></path><path d="M266.55 -151.19C266.73 -150.29 267.41 -149.58 268.31 -149.37C268.31 -149.37 266.55 -151.19 266.55 -151.19Z" id="bmiwu9WvR"></path><path d="M294.82 -144.56C291.36 -145.13 284.15 -147.2 284.15 -147.2C284.15 -147.2 276.6 -147.93 274.37 -148.86C272.14 -149.79 273.9 -152.17 273.9 -152.17C273.9 -152.17 273.9 -152.25 273.9 -152.39C273.85 -153.26 273.7 -156.4 274.23 -157.24C274.85 -158.23 274.49 -161.44 274.49 -161.44C274.49 -161.44 285.2 -159.37 285.41 -160.35C285.61 -161.33 287.27 -162.72 288.05 -163.04C288.82 -163.37 289.4 -160.45 289.4 -160.45C289.4 -160.45 294.26 -156.31 294.57 -154.81C294.88 -153.31 298.29 -152.53 298.29 -152.53C300.51 -151.94 302.69 -151.21 304.82 -150.36C305.61 -149.99 306.16 -149.23 306.25 -148.35C306.3 -147.67 306.23 -146.98 306.04 -146.32C305.53 -144.2 298.28 -143.99 294.82 -144.56Z" id="e7qL9Plo"></path><path d="M294.82 -144.56C291.36 -145.13 284.15 -147.2 284.15 -147.2C284.15 -147.2 276.6 -147.93 274.37 -148.86C272.14 -149.79 273.9 -152.17 273.9 -152.17C273.9 -152.17 273.9 -152.25 273.9 -152.39C274.99 -152.15 283.65 -150.26 284.73 -150.02C284.73 -150.02 290.07 -147.75 293.48 -147.75C296.47 -147.75 303.14 -146.52 306.25 -148.38C306.31 -147.69 306.24 -146.99 306.04 -146.32C305.53 -144.2 298.28 -143.99 294.82 -144.56Z" id="c7wUmAtRzc"></path><path d="M291.4 -154.5C291.4 -154.5 290.88 -151.09 288.81 -149.94C288.81 -149.94 291.4 -154.5 291.4 -154.5Z" id="aNkQvHVwp"></path><path d="M311.22 -279.02C310.25 -279.02 309.64 -279.02 309.64 -279.02C309.5 -279.3 308.83 -280.68 307.61 -283.16C308.83 -285.23 309.5 -286.38 309.64 -286.61C309.64 -286.61 311.5 -287.13 313.98 -287.58C317.64 -288.23 322.68 -288.75 325.05 -287.27C329.03 -284.8 328.6 -281.79 324.57 -280.32C321.49 -279.15 314.38 -279.02 311.22 -279.02Z" id="c1R61Jrxe4"></path><path d="M277.51 -329.86C278.05 -330.48 278.35 -330.83 278.41 -330.9C278.41 -330.9 283.03 -323.58 283.51 -320.82C283.51 -320.82 284.62 -314.89 284.62 -314.89C284.62 -314.89 285.79 -311.3 286.55 -309.72C287.2 -308.51 287.71 -307.24 288.07 -305.91C288.13 -305.23 287.79 -303.71 289.24 -302.75C290.68 -301.8 291.03 -299.17 291.03 -299.17C291.03 -299.17 296.28 -294.06 299.04 -293.92C301.81 -293.78 309.73 -292.4 309.46 -291.03C309.2 -289.65 312.78 -288.82 314.21 -288.47C315.64 -288.12 304.9 -283.97 311.22 -278.63C311.22 -278.63 307.21 -277.84 306.8 -276.84C306.39 -275.84 302.18 -277.39 302.18 -277.39C302.18 -277.39 301.28 -279.53 298.17 -279.67C295.07 -279.8 293.48 -281.18 293.48 -281.39C293.48 -281.6 290.38 -283.33 288.65 -283.81C286.93 -284.29 284.65 -284.5 284.58 -284.99C284.51 -285.48 274.23 -329.84 274.23 -329.84C274.66 -329.84 275.76 -329.85 277.51 -329.86Z" id="a4QMldyDbe"></path><path d="M277.51 -329.69C278.05 -330.31 278.35 -330.65 278.41 -330.72C278.41 -330.72 283.03 -323.41 283.51 -320.64C283.51 -320.64 284.62 -314.71 284.62 -314.71C284.62 -314.71 285.79 -311.12 286.55 -309.53C287.2 -308.33 287.71 -307.06 288.07 -305.74C288.13 -305.05 287.79 -303.53 289.24 -302.58C290.68 -301.63 291.03 -298.99 291.03 -298.99C291.03 -298.99 296.28 -293.88 299.04 -293.75C301.81 -293.61 309.73 -292.23 309.46 -290.85C309.2 -289.47 312.78 -288.64 314.21 -288.3C315.64 -287.96 304.9 -283.79 311.22 -278.47C311.22 -278.47 307.21 -277.68 306.8 -276.68C306.39 -275.68 302.18 -277.23 302.18 -277.23C302.18 -277.23 301.28 -279.38 298.17 -279.51C295.07 -279.64 293.48 -281.03 293.48 -281.24C293.48 -281.45 290.38 -283.17 288.65 -283.65C286.93 -284.13 284.65 -284.35 284.58 -284.83C284.51 -285.31 274.23 -329.69 274.23 -329.69C274.66 -329.69 275.76 -329.69 277.51 -329.69Z" id="a3E3RBES0"></path><path d="M383.12 -142.12C435.26 -142.12 477.53 -133.63 477.53 -123.16C477.53 -112.69 435.26 -104.2 383.12 -104.2C330.97 -104.2 288.7 -112.68 288.7 -123.16" id="f2HYytjnIZ"></path><path d="M363.72 -532.9C363.72 -532.9 363.72 -532.9 363.72 -532.9C353.64 -473.51 348.04 -440.52 346.92 -433.92C346.92 -433.92 346.92 -433.92 346.92 -433.92C338.93 -435.28 334.5 -436.03 333.61 -436.18C333.61 -436.18 333.61 -436.18 333.61 -436.18C343.68 -495.57 349.28 -528.56 350.4 -535.16C350.4 -535.16 350.4 -535.16 350.4 -535.16C358.39 -533.81 362.83 -533.05 363.72 -532.9Z" id="ekfffZpkd"></path><path d="M382.39 -114.55L384.92 -136.49L379.44 -135.65L379.44 -135.65L382.39 -114.55Z" id="baWKBiIc5"></path><path d="M284.51 -134.38L287.47 -122.99L289.58 -122.99L292.11 -135.22L293.38 -149.99L284.51 -147.46L284.51 -147.46L284.51 -134.38Z" id="a2yEaYfiBx"></path><path d="M284.82 -197.24C284.82 -197.24 277.66 -177.41 282.71 -173.19C281.91 -173.19 275.51 -173.19 274.71 -173.19C274.71 -173.19 271.75 -188.38 278.5 -198.5C279.76 -198.25 284.19 -197.36 284.82 -197.24Z" id="c15OQ9sdkh"></path><path d="M284.82 -197.24C284.82 -197.24 277.66 -177.41 282.71 -173.19C281.91 -173.19 275.51 -173.19 274.71 -173.19C274.71 -173.19 271.75 -188.38 278.5 -198.5C279.76 -198.25 284.19 -197.36 284.82 -197.24Z" id="a9K386pX6"></path><path d="M320.79 -436.85C308.64 -359.91 301.89 -317.16 300.54 -308.61C300.54 -308.61 270.6 -171.92 281.99 -144.92C282.94 -144.92 287.72 -144.92 296.33 -144.92L339.36 -407.32L320.79 -436.85Z" id="aIczOs4ZR"></path><path d="M372.15 -452.78C381.47 -375.44 386.64 -332.47 387.68 -323.88C387.68 -323.88 398.98 -159.68 386.6 -133.12C385.79 -133.12 381.71 -133.12 374.37 -133.12L352.52 -423.95L372.15 -452.78Z" id="axmq8dZmn"></path><path d="M335.27 -495.55C347.76 -495.24 367.07 -492.96 377.14 -482.64C392.76 -466.61 366.6 -412.62 366.6 -412.62C366.6 -412.62 342.1 -367.48 319.78 -424.85C319.74 -424.8 310.48 -455.52 318.91 -483.7C321.05 -490.9 327.76 -495.76 335.27 -495.55Z" id="a156J6rDUP"></path><path d="M335.27 -495.55C347.76 -495.24 367.07 -492.96 377.14 -482.64C392.76 -466.61 366.6 -412.62 366.6 -412.62C366.6 -412.62 342.1 -367.48 319.78 -424.85C319.74 -424.8 310.48 -455.52 318.91 -483.7C321.05 -490.9 327.76 -495.76 335.27 -495.55Z" id="h15WBhSHa9"></path><path d="M339.15 -481.16C348.04 -480.93 361.78 -479.31 368.94 -471.96C380.05 -460.55 361.43 -422.11 361.43 -422.11C361.43 -422.11 344.05 -389.97 328.09 -430.8C328.09 -430.82 321.49 -452.67 327.49 -472.74C329.04 -477.85 333.81 -481.3 339.15 -481.16Z" id="l5vJfAGToz"></path><path d="M372.47 -138.45C374.61 -135.81 378.49 -135.6 381.81 -134.77C384.35 -134.04 386.83 -133.07 389.19 -131.86C389.9 -131.52 395.65 -128.81 396.37 -128.47C394.53 -128.36 392.71 -127.98 390.98 -127.35C390.05 -127.01 389.04 -126.44 388.91 -125.48C388.87 -124.66 389.35 -123.9 390.1 -123.57C390.85 -123.26 391.66 -123.12 392.47 -123.15C396.75 -123.03 401.03 -123.25 405.27 -123.82C405.32 -123.83 405.73 -123.89 405.78 -123.89C409.05 -122.27 411.64 -120.91 412.29 -120.58C413.19 -120.11 414.27 -120.58 415.03 -121.25C415.96 -122.07 416.77 -123 417.46 -124.03C417.59 -123.81 417.72 -123.59 417.82 -123.38C418.51 -122.04 419.17 -120.3 418.17 -119.16C417.38 -118.27 415.89 -118.12 415.44 -117.05C415.19 -116.25 415.49 -115.38 416.18 -114.91C416.86 -114.46 417.65 -114.18 418.47 -114.12C420.43 -113.85 422.41 -113.87 424.36 -114.17C425.42 -114.24 426.42 -114.67 427.2 -115.38C427.88 -116.29 428.23 -117.4 428.22 -118.54C428.35 -120.07 429.43 -132.35 429.57 -133.89C429.69 -134.62 429.64 -135.36 429.41 -136.07C428.87 -137.37 427.32 -137.92 425.91 -138.15C425.89 -138.15 425.77 -138.15 425.76 -138.15C426.93 -138.15 428.13 -138.2 429.39 -138.2C430.49 -138.13 431.6 -138.27 432.65 -138.61C434.66 -139.4 435.74 -141.51 436.6 -143.46C438.18 -146.87 440 -150.57 439.76 -154.36C439.7 -154.39 439.2 -154.61 439.14 -154.64C439.09 -158.67 437.4 -162.44 436.77 -166.38C437.46 -167.44 437.82 -168.68 437.82 -169.94C437.74 -171.33 437.44 -172.69 436.93 -173.98C434.43 -181.43 431.92 -188.89 428.57 -196C426.4 -200.74 423.76 -205.24 420.67 -209.44C419.46 -211.02 418.41 -212.28 418.16 -212.6C417.53 -213.32 416.11 -214.35 415.85 -215.28C415.59 -216.2 416.14 -217.1 415.85 -218.05C415.78 -218.3 415.68 -218.54 415.57 -218.77C417.42 -221.22 416.89 -224.76 416.25 -227.81C416.17 -228.19 415.54 -231.23 415.46 -231.61C415.29 -232.65 414.96 -233.67 414.48 -234.62C413.97 -235.43 413.33 -236.15 412.59 -236.76C408.7 -240.27 403.9 -242.6 399.53 -245.5C394.91 -248.58 390.77 -252.31 386.63 -256C385.37 -257.13 383.78 -258.34 382.15 -257.86C380.51 -257.39 379.83 -255.62 379.78 -254.01C379.75 -251.75 380.68 -249.58 382.34 -248.05C385.2 -245.43 389.53 -245.22 392.93 -243.37C394.1 -242.69 395.21 -241.92 396.26 -241.06C397.25 -240.28 405.16 -234.07 406.15 -233.29C406.9 -232.84 407.45 -232.12 407.69 -231.28C407.73 -230.78 407.65 -230.27 407.45 -229.8C407.08 -228.66 406.45 -227.23 405.98 -225.78C405.9 -225.84 405.27 -226.3 405.19 -226.35C403.56 -227.58 401.8 -228.63 399.95 -229.51C397.51 -230.51 394.92 -231.13 392.28 -231.35C386.44 -232.01 381.22 -231.11 377.65 -226.23C376.91 -225.12 375.97 -224.15 374.88 -223.38C374.07 -223 373.31 -222.52 372.62 -221.95C370.79 -219.92 371.83 -216.56 373.56 -214.84C375.01 -213.49 376.81 -212.55 378.76 -212.13C380.98 -207.18 386.56 -204.68 391.73 -206.32C391.85 -205.3 391.88 -204.27 391.8 -203.25C391.72 -202.18 392.13 -201.14 392.91 -200.41C393.33 -200.13 393.79 -199.92 394.27 -199.78C396.02 -199.15 397.68 -198.28 399.2 -197.21C397.41 -195.28 395.94 -193.08 394.83 -190.7C393.45 -187.48 393.75 -183.79 395.62 -180.83C395.63 -180.83 395.67 -180.78 395.67 -180.77C395.54 -180.28 395.29 -179.82 394.95 -179.44C393.95 -178.66 392.51 -178.81 391.69 -179.78C391.01 -180.58 390.44 -181.46 389.98 -182.41C388.4 -184.99 385.83 -186.8 382.87 -187.43C381.79 -187.71 380.65 -187.66 379.59 -187.3C378.53 -186.92 377.79 -185.96 377.69 -184.83C377.69 -183.64 378.56 -182.65 379.41 -181.81C382.03 -179.09 384.95 -176.68 388.1 -174.62C388.96 -174.08 389.85 -173.6 390.77 -173.16C388.4 -173.66 386.56 -174.04 386.09 -174.13C383.93 -174.67 381.71 -174.87 379.49 -174.71C377.25 -174.54 375.22 -173.35 373.96 -171.49C373.09 -169.83 372.91 -167.9 373.45 -166.12C373.99 -164.34 374.81 -162.66 375.87 -161.14C377.53 -158.34 379.57 -155.79 381.93 -153.55C379.96 -152.96 377.98 -152.31 376.05 -151.6C374.13 -150.89 372.1 -150.02 371.22 -148.25C370.7 -146.98 370.53 -145.58 370.74 -144.22C370.87 -142.18 371.19 -140.04 372.47 -138.45ZM399.89 -171.08C400.31 -171.28 400.67 -171.58 400.93 -171.96C402.13 -173.57 402.98 -175.41 403.42 -177.37C403.88 -177.43 404.33 -177.54 404.77 -177.71C404.17 -177.14 403.83 -176.35 403.83 -175.53C404.28 -175.31 407.84 -173.56 408.29 -173.34C408.61 -173.22 408.89 -173.01 409.08 -172.72C409.2 -172.43 409.23 -172.1 409.17 -171.79C409.04 -170.77 408.84 -169.75 408.72 -168.74C407.38 -169.13 406.07 -169.45 404.89 -169.77C403.22 -170.22 401.52 -170.65 399.82 -171.08C399.82 -171.08 399.88 -171.08 399.89 -171.08Z" id="aiLsUkfj8"></path><linearGradient id="gradientaKQpnpPTK" gradientUnits="userSpaceOnUse" x1="439.8" y1="-185.95" x2="370.69" y2="-185.95"><stop style="stop-color: #808080;stop-opacity: 0.25" offset="0%"></stop><stop style="stop-color: #808080;stop-opacity: 0.12" offset="54%"></stop><stop style="stop-color: #808080;stop-opacity: 0.1" offset="100%"></stop></linearGradient><path d="M407.29 -214.12C407.68 -214.4 408.11 -214.6 408.57 -214.72C409.4 -214.8 410.22 -214.47 410.77 -213.84C412.67 -211.96 412.89 -208.84 411.91 -206.35C410.93 -203.87 408.96 -201.91 406.9 -200.21C405.23 -198.84 403.47 -197.58 401.63 -196.46C400.6 -198.87 398.66 -200.76 396.23 -201.72C394.06 -202.55 392.48 -204.8 391.24 -206.76C390.32 -208.21 389.49 -208.15 390.32 -209.65C391.26 -211.09 392.36 -212.42 393.61 -213.6C394.29 -214.32 394.88 -215.11 395.38 -215.97C395.93 -216.97 395.81 -217.61 396.66 -216.82C397.22 -216.3 397.45 -215.17 398.1 -214.56C398.82 -213.87 399.69 -213.35 400.65 -213.05C402.91 -212.49 405.31 -212.87 407.29 -214.12Z" id="c3yrSGH3tF"></path><path d="M407.67 -229.92C407.43 -230.75 406.89 -231.46 406.16 -231.91C405.19 -232.67 397.46 -238.8 396.49 -239.57C395.48 -240.42 394.4 -241.18 393.25 -241.85C389.92 -243.68 385.71 -243.89 382.91 -246.47C381.29 -247.99 380.37 -250.13 380.4 -252.35C380.4 -253.93 381.19 -255.72 382.68 -256.16C384.18 -256.61 385.84 -255.44 387.08 -254.32C391.11 -250.69 395.14 -247 399.65 -243.96C403.92 -241.09 408.62 -238.8 412.42 -235.33C413.11 -234.74 413.71 -234.04 414.18 -233.27C414.65 -232.33 414.97 -231.32 415.14 -230.29C415.22 -229.91 415.85 -226.92 415.93 -226.54C416.59 -223.38 417.13 -219.71 415.01 -217.28C414.38 -216.5 413.44 -216.03 412.43 -216.01C411.73 -216.1 411.05 -216.33 410.45 -216.69C408.87 -217.48 406.01 -218.27 405.52 -220.24C404.91 -222.72 406.69 -226.17 407.44 -228.46C407.62 -228.93 407.7 -229.43 407.67 -229.92Z" id="eiXpN4l9d"></path><path d="M390.35 -181.67C388.83 -184.21 386.32 -186.01 383.42 -186.63C382.37 -186.9 381.28 -186.85 380.26 -186.51C379.22 -186.12 378.49 -185.17 378.4 -184.07C378.4 -182.9 379.25 -181.92 380.08 -181.09C382.63 -178.4 385.48 -176.02 388.58 -173.98C391.68 -171.94 395.23 -170.71 398.92 -170.39C399.29 -170.34 399.67 -170.38 400.03 -170.49C400.43 -170.68 400.78 -170.98 401.04 -171.35C403 -173.87 403.68 -177.13 404.2 -180.27C404.01 -179.14 397.65 -181.77 396.93 -181.44C395.87 -180.94 395.97 -179.45 395.21 -178.74C394.23 -177.97 392.81 -178.12 392.02 -179.08C391.36 -179.87 390.8 -180.74 390.35 -181.67Z" id="b1pZuMkLH"></path><path d="M438.14 -153.11C437.71 -152.43 436.73 -152.42 435.93 -152.54C434.08 -152.85 432.27 -153.29 430.48 -153.85C428.86 -154.32 415.89 -158.07 414.26 -158.54C414.01 -158.59 413.77 -158.7 413.57 -158.88C413.4 -159.08 413.28 -159.33 413.24 -159.59C412.68 -161.92 412.56 -164.33 412.89 -166.7C412.91 -167.04 413.02 -167.37 413.21 -167.66C413.58 -167.99 414.06 -168.17 414.56 -168.16C417.1 -168.42 419.65 -168.54 422.2 -168.51C423.86 -168.44 425.52 -168.48 427.17 -168.62C429.31 -168.87 431.76 -170.1 433.9 -169.91C435.76 -169.75 435.68 -168.33 435.87 -166.75C436.4 -162.55 438.32 -158.54 438.36 -154.26C438.4 -153.86 438.32 -153.46 438.14 -153.11Z" id="a1pE3rJP7Z"></path><path d="M380.12 -174.09C377.94 -173.91 375.95 -172.75 374.73 -170.93C373.87 -169.29 373.68 -167.38 374.22 -165.62C374.76 -163.87 375.56 -162.22 376.59 -160.71C378.41 -157.56 380.76 -154.74 383.52 -152.37C384.9 -151.27 386.43 -150.36 387.76 -149.21C390.58 -146.73 392.34 -143.28 394.02 -139.92C395.6 -136.76 397.18 -133.54 397.86 -130.06C397.87 -129.79 398 -129.54 398.2 -129.36C398.42 -129.25 398.67 -129.24 398.9 -129.31C399.68 -129.46 405.91 -130.61 406.69 -130.75C407.36 -130.72 407.92 -131.24 407.95 -131.91C407.96 -132.16 407.9 -132.39 407.78 -132.6C406.09 -139.86 402.93 -146.69 398.49 -152.68C402.67 -148.72 408.51 -147.04 414.15 -148.14C415.24 -148.3 416.27 -148.74 417.12 -149.43C418.86 -151.01 418.78 -153.7 418.4 -156C418.05 -158.05 417.57 -160.08 416.96 -162.06C415.5 -166.8 409.19 -168.08 404.92 -169.24C398.85 -170.84 392.73 -172.27 386.57 -173.51C383.72 -174 381.57 -174.19 380.12 -174.09Z" id="bSxLnOhB"></path><path d="M395.28 -154.75C393.89 -156.33 389.89 -157.12 387.93 -157.86C385.5 -158.76 382.86 -159.68 380.82 -161.29C384.76 -160.04 388.61 -158.52 392.33 -156.71C393.44 -156.27 394.45 -155.61 395.28 -154.75Z" id="bV9rNAll"></path><path d="M417.88 -119.24C417.14 -118.37 415.65 -118.22 415.21 -117.16C414.96 -116.37 415.25 -115.52 415.93 -115.04C416.6 -114.59 417.37 -114.32 418.17 -114.25C420.08 -113.99 422.02 -114.01 423.93 -114.3C424.96 -114.38 425.93 -114.8 426.7 -115.49C427.36 -116.41 427.71 -117.52 427.69 -118.65C427.82 -120.17 428.87 -132.29 429.01 -133.81C429.12 -134.53 429.07 -135.27 428.86 -135.97C428.33 -137.25 426.81 -137.78 425.44 -138.01C423.9 -138.27 422.33 -138.34 420.78 -138.2C419.73 -138.19 418.72 -137.84 417.88 -137.21C417.11 -136.32 416.63 -135.22 416.51 -134.05C416.16 -132.24 415.16 -129.75 415.38 -127.92C415.51 -126.41 416.87 -124.74 417.53 -123.41C418.21 -122.08 418.85 -120.37 417.88 -119.24Z" id="d1E2CoTXna"></path><path d="M391.31 -127.32C390.41 -126.99 389.42 -126.43 389.29 -125.48C389.25 -124.67 389.72 -123.92 390.46 -123.59C391.19 -123.29 391.98 -123.14 392.78 -123.17C396.96 -123.06 401.14 -123.28 405.28 -123.84C406.36 -123.91 407.4 -124.24 408.32 -124.79C409.26 -125.39 409.66 -126.56 409.28 -127.61C408.78 -128.65 407.42 -128.97 406.77 -129.91C406.29 -130.59 406.17 -131.6 405.43 -131.95C404.87 -132.13 404.26 -132.08 403.73 -131.83C402.94 -131.55 401.04 -131.27 400.5 -130.62C400.26 -129.87 400.13 -129.09 400.09 -128.31C397.13 -128.7 394.11 -128.36 391.31 -127.32Z" id="f7jl890ELI"></path><path d="M388.9 -225.51C383.17 -225.51 378.53 -220.87 378.53 -215.14C378.53 -209.41 383.17 -204.77 388.9 -204.77C394.63 -204.77 399.27 -209.41 399.27 -215.14C399.27 -220.87 394.63 -225.51 388.9 -225.51Z" id="c2WkCyO1Ri"></path><path d="M407.71 -221.73C407.02 -221.94 406.28 -221.91 405.62 -221.63C405.18 -221.31 404.84 -220.89 404.62 -220.39C403.99 -219.38 403.53 -218.27 403.24 -217.12C402.96 -215.94 403.25 -214.7 404.03 -213.77C404.65 -213.14 405.53 -212.83 406.16 -212.19C407 -211.27 407.34 -210 407.1 -208.78C406.84 -207.58 406.37 -206.44 405.71 -205.41C404.19 -202.72 402.45 -200.16 400.52 -197.76C398.5 -195.25 396.24 -192.84 395.06 -189.86C393.71 -186.68 394.01 -183.04 395.85 -180.12C397.77 -177.33 401.59 -175.83 404.76 -177.03C404.17 -176.47 403.85 -175.7 403.86 -174.89C404.29 -174.67 407.77 -172.94 408.2 -172.73C408.52 -172.61 408.8 -172.39 408.99 -172.11C409.11 -171.82 409.14 -171.5 409.07 -171.2C408.73 -169.44 408.55 -167.66 408.54 -165.88C408.66 -164.1 409.48 -162.23 411.09 -161.45C412.56 -160.74 414.32 -161.12 415.93 -161.45C419.69 -162.22 423.52 -162.62 427.36 -162.65C429.27 -162.65 431.25 -162.61 433.01 -163.35C435.42 -164.41 436.99 -166.79 437.02 -169.43C436.94 -170.8 436.64 -172.15 436.14 -173.42C433.7 -180.77 431.25 -188.14 427.98 -195.16C425.85 -199.83 423.25 -204.28 420.23 -208.43C419.44 -209.48 418.65 -210.52 417.77 -211.52C417.15 -212.24 415.77 -213.25 415.52 -214.17C415.27 -215.09 415.8 -215.97 415.52 -216.9C415.16 -218.03 414.46 -219.01 413.5 -219.71C411.84 -220.93 409.74 -221.35 407.71 -221.73Z" id="b1dxKQMYKD"></path><path d="M425.13 -159.88C421.64 -161.08 417.76 -162.02 414.33 -160.67C413.31 -160.26 412.37 -159.67 411.39 -159.19C408.08 -157.61 404.28 -157.34 400.62 -156.93C392.48 -156.02 384.48 -154.12 376.8 -151.27C374.96 -150.59 372.97 -149.69 372.06 -147.97C371.54 -146.72 371.36 -145.35 371.55 -144.02C371.68 -142 371.99 -139.88 373.25 -138.31C375.33 -135.7 379.12 -135.51 382.36 -134.69C384.85 -133.96 387.27 -133 389.57 -131.81C397.14 -128.2 404.72 -124.59 412.15 -120.68C413.01 -120.21 414.07 -120.68 414.82 -121.33C417.05 -123.41 418.67 -126.07 419.48 -129.01C420.28 -131.94 420.68 -134.97 420.66 -138C423.57 -138 425.93 -138.13 428.84 -138.13C429.91 -138.06 430.98 -138.2 432 -138.53C433.95 -139.32 435.01 -141.4 435.89 -143.31C437.45 -146.69 439.21 -150.34 438.96 -154.04C434.41 -156.14 429.86 -158.25 425.13 -159.88Z" id="a2WNEUp2uI"></path><path d="M386.12 -143.24C388.17 -144.24 390.54 -144.26 392.82 -144.25C394.21 -144.27 395.6 -144.16 396.98 -143.93C399.07 -143.37 401.11 -142.61 403.05 -141.65C407.9 -139.61 413.11 -138.59 418.36 -138.64" id="d2nb1Szz5h"></path><path d="M379.91 -210.87C381.96 -210.39 384.08 -210.21 386.15 -209.75C388.7 -209.19 391.48 -207.85 392.05 -205.3C392.19 -204.29 392.21 -203.26 392.13 -202.23C392.06 -201.19 392.45 -200.18 393.2 -199.46C393.61 -199.18 394.05 -198.97 394.53 -198.83C403.01 -195.59 408.65 -187.5 408.75 -178.42C411.38 -179.95 413.18 -182.6 413.63 -185.62C413.63 -182.87 416 -180.09 414.66 -177.63C420.5 -181.45 422.14 -189.29 418.32 -195.13C418.13 -195.43 417.92 -195.72 417.7 -196C416.66 -197.33 415.33 -198.44 414.24 -199.71C411.11 -203.32 409.63 -208.07 410.15 -212.83C410.38 -214.82 410.94 -216.85 410.52 -218.81C409.91 -221.54 407.52 -223.44 405.24 -225.06C403.64 -226.26 401.93 -227.3 400.12 -228.17C397.73 -229.16 395.2 -229.78 392.62 -229.99C386.93 -230.63 381.86 -229.75 378.33 -224.94C377.61 -223.84 376.7 -222.88 375.63 -222.13C374.83 -221.75 374.09 -221.28 373.42 -220.71C371.61 -218.7 372.64 -215.39 374.32 -213.67C375.88 -212.23 377.82 -211.26 379.91 -210.87Z" id="b1k4YhBZXD"></path><path d="M248.01 -340.63C249.85 -341.73 252.12 -346.38 253.67 -350.02C254.75 -352.55 255.49 -354.61 255.49 -354.61C255.49 -354.61 273.56 -357.82 267.09 -346.71C266.07 -345.01 265.3 -343.17 264.81 -341.25C262.94 -333.74 267.58 -329.49 267.76 -329.35C267.44 -329.48 244.92 -338.78 248.01 -340.63Z" id="d1Mu5vIIUR"></path><path d="M264.78 -341.28C260.11 -341.61 256.01 -344.5 254.12 -348.79C253.94 -349.19 253.78 -349.6 253.64 -350.02C254.73 -352.55 255.46 -354.61 255.46 -354.61C255.46 -354.61 273.54 -357.82 267.07 -346.74C266.05 -345.04 265.28 -343.2 264.78 -341.28Z" id="a2oONF1C6Z"></path><path d="M265.6 -341.71C260.64 -341.73 256.14 -344.66 254.12 -349.2C253.41 -350.8 253.04 -352.54 253.04 -354.29C253.08 -361.27 258.77 -366.9 265.75 -366.87C271.33 -366.84 276.24 -363.15 277.81 -357.79C278.14 -356.65 278.3 -355.48 278.3 -354.29C278.27 -347.31 272.59 -341.68 265.6 -341.71Z" id="b1BWxNCHxg"></path><path d="M288.65 -252.95C288.65 -252.95 282.44 -248.7 282.85 -251.37C283.27 -254.03 279.61 -264.96 279.61 -264.96C279.66 -263.48 279.98 -251.63 280.03 -250.15C280.03 -250.15 260.15 -251.08 258.69 -252.52C257.23 -253.96 248.8 -256.78 248.8 -256.78C248.8 -256.78 246.2 -254.69 243.81 -253.11C243.49 -254.9 243.26 -256.47 243.26 -256.47C243.83 -256.93 246.68 -259.22 251.8 -263.35L273.14 -268.95L281.15 -271.52C285.84 -264.13 288.44 -260.03 288.96 -259.2C288.96 -259.2 289.77 -257.92 290.49 -256.44C289.58 -255.45 288.95 -254.25 288.65 -252.95Z" id="fgrfC1emK"></path><path d="M288.86 -253.78C288.86 -253.78 282.65 -249.53 283.06 -252.2C283.47 -254.86 279.85 -265.75 279.85 -265.75C279.89 -264.27 280.23 -252.43 280.27 -250.95C280.27 -250.95 260.39 -251.88 258.94 -253.32C258.94 -253.32 249 -257.56 249 -257.56C249 -257.56 241.65 -251.66 240.31 -252.18C240.31 -252.18 242.68 -262.74 242.68 -262.74C243.06 -268.62 246.12 -315.66 246.5 -321.54C246.5 -321.54 245.47 -339.03 247.02 -339.65C247.26 -339.75 247.48 -339.89 247.67 -340.06C248.7 -340.98 249.01 -342.84 249.09 -344.42C249.2 -346.27 251.68 -345.35 251.68 -345.35C251.58 -345.22 251.1 -344.6 250.23 -343.48L263.06 -335.69C263.13 -335.64 263.17 -335.62 263.17 -335.61C263.69 -335.88 264.21 -336.11 264.75 -336.32C265.89 -336.75 267.4 -337.16 268.39 -336.75C268.94 -336.47 269.41 -336.05 269.75 -335.53C270.48 -334.43 271.07 -333.24 271.49 -331.99C271.96 -331.2 275.69 -324.91 276.15 -324.13C276.15 -324.13 278.52 -313.67 278.52 -313.25C278.52 -313.25 279.25 -303.32 280.1 -302.28C280.1 -302.28 281.76 -296.07 281.46 -294.51C281.46 -294.51 281.97 -287.17 281.97 -287.17C285.39 -284.37 287.14 -274.85 287.14 -274.85C287.14 -274.85 292.53 -264.18 292.94 -262.94C293.35 -261.7 292.79 -258.64 291.13 -257.61C289.48 -256.57 289.31 -254.54 288.86 -253.78Z" id="g5UB3Yr9aU"></path><path d="M263.08 -335.31C261.81 -333.45 258.18 -330.83 258.18 -330.83C257.13 -331.72 248.74 -338.81 247.69 -339.69C248.71 -340.61 249.02 -342.48 249.11 -344.05C249.21 -345.91 251.69 -344.98 251.69 -344.98C251.66 -344.94 251.42 -344.63 251.39 -344.59C250.83 -343.86 250.96 -342.81 251.7 -342.24C251.74 -342.21 251.79 -342.17 251.84 -342.14C254.09 -340.78 260.83 -336.68 263.08 -335.31Z" id="bmmaZDNdh"></path><path d="M263.08 -335.73C261.81 -333.87 258.18 -331.25 258.18 -331.25C257.13 -332.13 248.74 -339.22 247.69 -340.11C248.71 -341.03 249.02 -342.89 249.11 -344.46C249.21 -346.32 251.69 -345.4 251.69 -345.4C251.66 -345.36 251.42 -345.05 251.39 -345.01C250.83 -344.28 250.96 -343.22 251.7 -342.66C251.74 -342.62 251.79 -342.59 251.84 -342.56C254.09 -341.19 260.83 -337.1 263.08 -335.73Z" id="a4CCI5uFP7"></path><path d="M264.77 -331.8C264.89 -332.72 263.62 -334.75 262.84 -335.66C264.07 -336.05 265.39 -336.01 266.6 -335.56C267.14 -335.27 267.6 -334.85 267.93 -334.33C266.57 -332.72 264.65 -330.87 264.77 -331.8Z" id="d2HbYGeI7v"></path><path d="M264.97 -332.41C265.09 -333.33 263.96 -334.83 263.16 -335.74C264.3 -336.18 265.81 -336.59 266.8 -336.18C267.34 -335.89 267.8 -335.48 268.13 -334.96C266.78 -333.33 264.86 -331.5 264.97 -332.41Z" id="b2OohHyXLb"></path><path d="M246.04 -338.7C244.53 -337.13 242.8 -335.79 240.9 -334.73C240.9 -334.73 233.24 -329.34 232.83 -326.83C232.83 -326.83 229.93 -313.58 231.25 -309.99C231.25 -309.99 242.57 -289.21 242.57 -289.21C242.57 -289.21 239.94 -286.11 240.56 -282.45C240.56 -282.45 241.94 -273.76 241.6 -272.65C241.6 -272.65 242.01 -268.79 240.81 -267.82C240.81 -267.82 238.4 -265.2 242.05 -262.99C242.05 -262.99 242.74 -261.12 242.12 -260.71C241.49 -260.3 251.3 -256.02 255.16 -258.3C259.02 -260.57 266 -278.79 266.14 -282.87C266.27 -286.94 263.99 -300.39 262.75 -303.57C261.51 -306.74 257.78 -319.1 256.2 -321.86C254.61 -324.62 247.69 -339.6 247.69 -339.6C247.36 -339.42 247.83 -340.84 246.04 -338.7Z" id="bqm5K0zzi"></path><path d="M245.62 -338.7C244.11 -337.11 242.37 -335.76 240.45 -334.7C240.45 -334.7 232.79 -329.31 232.37 -326.8C232.37 -326.8 229.48 -313.55 230.79 -309.96C230.79 -309.96 242.11 -289.18 242.11 -289.18C242.11 -289.18 239.49 -286.08 240.11 -282.42C240.11 -282.42 241.49 -273.73 241.14 -272.62C241.14 -272.62 241.56 -268.76 240.35 -267.79C240.35 -267.79 237.94 -265.17 241.6 -262.96C241.6 -262.96 242.29 -261.09 241.67 -260.68C241.04 -260.27 250.85 -255.99 254.71 -258.26C258.57 -260.54 265.54 -278.76 265.69 -282.84C265.83 -286.91 263.54 -300.36 262.3 -303.54C261.06 -306.71 257.33 -319.07 255.75 -321.83C254.16 -324.58 247.28 -339.6 247.28 -339.6C246.95 -339.42 247.42 -340.84 245.62 -338.7Z" id="dKG6GVb7F"></path><path d="M250.25 -316.96C250.25 -316.96 250.32 -324 244.52 -327.86C245.66 -325.68 250.45 -321.31 250.25 -316.96Z" id="b10lG37mly"></path><path d="M264.55 -337.25C264.55 -337.25 268.4 -339.62 273.24 -333.59C273.24 -333.59 276.75 -331.59 277.79 -331.1C278.82 -330.61 280 -317.79 280 -317.79C280 -317.79 282.28 -312.26 281.65 -309.1C281.03 -305.94 283.45 -295.02 283.45 -295.02C283.45 -295.02 287.45 -275.42 287.32 -274.87C287.18 -274.33 283.24 -281.01 283.31 -284.35C283.38 -287.7 280 -298.02 279.52 -298.64C279.04 -299.25 275.72 -317 275.72 -317C275.72 -317 273.03 -324.52 271.3 -327C269.57 -329.48 267.44 -334.18 266.56 -335.01C265.92 -335.57 265.2 -336.03 264.43 -336.39C264.45 -336.56 264.52 -337.08 264.55 -337.25Z" id="d1su62Zzdz"></path><path d="M264.5 -337.25C264.5 -337.25 268.81 -339.62 273.64 -333.59C273.64 -333.59 277.17 -331.59 278.2 -331.1C279.24 -330.61 280.4 -317.79 280.4 -317.79C280.4 -317.79 282.68 -312.26 282.06 -309.1C281.45 -305.94 283.86 -295.02 283.86 -295.02C283.86 -295.02 287.86 -275.42 287.72 -274.87C287.58 -274.33 283.65 -281.01 283.72 -284.35C283.78 -287.7 280.4 -298.02 279.92 -298.64C279.44 -299.25 276.13 -317 276.13 -317C276.13 -317 273.44 -324.46 271.71 -326.96C269.99 -329.47 267.84 -334.15 266.97 -334.97C266.21 -335.57 265.34 -336.04 264.42 -336.35C264.44 -336.53 264.48 -337.07 264.5 -337.25Z" id="a1XO8k39n"></path><path d="M283.45 -294.12C283.45 -294.12 291.66 -299.5 295.62 -296.84C295.62 -296.84 306.08 -290.42 299.7 -287.7C299.7 -287.7 284.48 -285.49 284.48 -285.49C284.27 -287.22 283.65 -292.39 283.45 -294.12Z" id="alJ7iAl2E"></path><path d="M274.81 -222.18C273.83 -223.86 272.65 -225.87 272.24 -226.5C271.32 -228.5 270.51 -230.55 269.83 -232.65C270.62 -234.55 272.76 -239.98 272.76 -241.97C272.76 -244.41 276.72 -247.46 276.72 -247.46C278.16 -246.11 278.58 -243.98 277.73 -242.19C276.51 -239.55 275.5 -226.38 274.81 -222.18Z" id="aafQrRLXL"></path><path d="M277.2 -357.54C276.23 -357.28 275.28 -357.93 274.42 -358.46C273.55 -358.98 272.36 -359.36 271.61 -358.69C270.64 -357.8 271.34 -355.91 270.34 -355.06C269.71 -354.51 268.7 -354.7 267.97 -354.27C267.23 -353.83 267.05 -352.85 266.87 -352.01C266.69 -351.17 266.34 -350.21 265.51 -349.96C264.68 -349.72 263.93 -350.26 263.14 -350.23C262.98 -350.23 262.78 -350.23 262.67 -350.33C262.59 -350.44 262.57 -350.57 262.59 -350.7C262.69 -351.7 262.6 -352.72 262.32 -353.69C262.03 -354.68 261.22 -355.43 260.22 -355.67C258.76 -355.89 257.54 -354.62 256.69 -353.42C255.79 -352.15 254.97 -350.83 254.24 -349.47C254.21 -349.39 254.17 -349.3 254.12 -349.19C253.41 -350.79 253.04 -352.53 253.04 -354.28C253.08 -361.27 258.77 -366.9 265.75 -366.86C271.33 -366.83 276.24 -363.14 277.81 -357.78C277.62 -357.69 277.41 -357.61 277.2 -357.54Z" id="b3DtA7Q6a"></path><path d="M260.23 -355.86C261.24 -355.63 262.04 -354.88 262.34 -353.9C262.61 -352.92 262.7 -351.91 262.6 -350.9C262.58 -350.77 262.61 -350.64 262.68 -350.52C262.79 -350.4 262.99 -350.42 263.16 -350.43C263.95 -350.43 264.78 -349.93 265.53 -350.16C266.28 -350.39 266.71 -351.37 266.89 -352.21C267.06 -353.04 267.26 -354.01 267.98 -354.47C268.71 -354.92 269.7 -354.73 270.35 -355.26C271.36 -356.11 270.66 -358.01 271.63 -358.88C272.38 -359.56 273.57 -359.18 274.43 -358.65C275.29 -358.13 276.24 -357.48 277.21 -357.74C277.53 -357.85 277.85 -357.99 278.15 -358.14C279.69 -358.72 281.68 -357.73 282.94 -358.78C283.4 -359.24 283.73 -359.81 283.9 -360.44C284.25 -361.28 284.48 -362.17 284.59 -363.07C284.71 -363.99 284.46 -364.91 283.9 -365.65C283.11 -366.61 281.68 -366.86 280.63 -367.57C279.78 -368.24 279.08 -369.07 278.56 -370.02C278.04 -370.97 277.35 -371.83 276.53 -372.54C275.69 -373.25 274.51 -373.43 273.49 -373.01C273.19 -372.8 272.85 -372.64 272.5 -372.54C272.11 -372.53 271.73 -372.64 271.4 -372.84C267.81 -374.53 263.63 -374.23 259.7 -373.73C258.11 -373.6 256.55 -373.23 255.08 -372.61C253.6 -371.99 252.46 -370.74 251.97 -369.21C251.65 -367.99 251.9 -366.67 251.51 -365.47C251.25 -364.68 250.72 -363.96 250.4 -363.17C249.57 -360.98 250.57 -358.58 251 -356.28C251.46 -353.77 251.23 -351.05 252.29 -348.67C252.51 -348.21 252.74 -347.4 253.27 -347.7C253.65 -347.93 254.06 -349.28 254.25 -349.67C254.99 -351.03 255.81 -352.35 256.7 -353.61C257.56 -354.81 258.78 -356.09 260.23 -355.86Z" id="bceF47Xqu"></path><path d="M232.1 -307.87C232.1 -307.87 236.52 -291.44 238.59 -287.99C238.59 -287.99 243.69 -280.09 243.69 -280.09C247.16 -278.53 251.01 -278.05 254.75 -278.71C260.68 -279.88 278 -282.99 278 -282.99C278.84 -282.84 279.69 -283.15 280.22 -283.82C281.01 -284.92 284.91 -285.48 284.91 -285.48C284.91 -285.48 289.46 -292.1 283.87 -294.86C283.87 -294.86 283.19 -293.34 280.22 -294.38C277.24 -295.42 276.35 -293.55 276.35 -293.55C276.35 -293.55 271.52 -292.58 268.83 -292.93C266.14 -293.27 259.44 -293.41 258.75 -293.96C258.39 -294.28 257.83 -294.25 257.51 -293.89C257.51 -293.89 257.51 -293.89 257.51 -293.89C256.71 -294.18 255.96 -294.6 255.3 -295.14C254.75 -295.75 253.99 -294.44 253.99 -294.44C253.99 -294.44 253.02 -295 253.3 -295.68C253.57 -296.37 252.4 -299 252.4 -299C252.09 -300.01 252.02 -301.07 252.2 -302.11C252.54 -303.49 250.47 -308.43 250.47 -308.43C250.44 -309.27 250.54 -310.1 250.74 -310.92C251.09 -312.16 248.12 -314.65 248.12 -314.65C248.12 -314.65 245.22 -328.72 239.08 -324.13C232.94 -319.54 233.96 -313.16 233.96 -313.16C233.59 -312.1 232.28 -308.4 232.1 -307.87Z" id="b1jUH18t29"></path><path d="M231.68 -307.87C231.68 -307.87 236.1 -291.44 238.17 -287.99C238.17 -287.99 243.28 -280.09 243.28 -280.09C246.74 -278.53 250.6 -278.05 254.34 -278.71C260.28 -279.88 277.6 -282.99 277.6 -282.99C278.43 -282.84 279.28 -283.15 279.81 -283.82C280.6 -284.92 284.51 -285.48 284.51 -285.48C284.51 -285.48 289.06 -292.1 283.47 -294.86C283.47 -294.86 282.78 -293.34 279.81 -294.38C276.85 -295.42 275.94 -293.55 275.94 -293.55C275.94 -293.55 271.11 -292.58 268.42 -292.93C265.72 -293.27 259.03 -293.41 258.35 -293.96C257.98 -294.28 257.43 -294.25 257.11 -293.89C257.11 -293.89 257.11 -293.89 257.1 -293.89C256.3 -294.18 255.55 -294.6 254.89 -295.14C254.34 -295.75 253.58 -294.44 253.58 -294.44C253.58 -294.44 252.62 -295 252.89 -295.68C253.17 -296.37 251.99 -299 251.99 -299C251.69 -300.01 251.62 -301.07 251.79 -302.11C252.14 -303.49 250.07 -308.43 250.07 -308.43C250.04 -309.27 250.13 -310.1 250.34 -310.92C250.68 -312.16 247.72 -314.65 247.72 -314.65C247.72 -314.65 244.82 -328.72 238.68 -324.13C232.54 -319.54 233.54 -313.16 233.54 -313.16C233.17 -312.1 231.87 -308.4 231.68 -307.87Z" id="ch5ZgjQIH"></path><path d="M246.11 -294.6C248.38 -293.43 250.59 -297.15 250.59 -297.15C249.7 -296.64 243.83 -295.77 246.11 -294.6Z" id="b20iwdAh2"></path><path d="M260.22 -357.03C258.76 -357.26 257.54 -355.98 256.69 -354.79C255.79 -353.52 254.97 -352.21 254.24 -350.84C254.02 -350.43 253.64 -349.1 253.25 -348.87C252.72 -348.56 252.46 -349.39 252.28 -349.85C251.21 -352.22 251.49 -354.95 250.98 -357.46C250.61 -358.92 250.31 -360.4 250.09 -361.89C249.93 -360.09 250.64 -358.2 250.98 -356.36C251.45 -353.85 251.21 -351.13 252.28 -348.75C252.49 -348.29 252.72 -347.47 253.25 -347.78C253.64 -348.01 254.04 -349.36 254.24 -349.74C254.97 -351.11 255.79 -352.43 256.69 -353.69C257.54 -354.89 258.76 -356.17 260.22 -355.94C261.22 -355.71 262.03 -354.96 262.32 -353.97C262.49 -353.46 262.58 -352.93 262.6 -352.39C262.68 -353.29 262.58 -354.2 262.32 -355.07C262.03 -356.05 261.22 -356.81 260.22 -357.03Z" id="a6pKuaZmj"></path><path d="M282.93 -359.94C281.67 -358.89 279.68 -359.88 278.14 -359.29C277.82 -359.18 277.53 -358.99 277.2 -358.89C276.23 -358.64 275.28 -359.29 274.42 -359.81C273.55 -360.33 272.36 -360.72 271.61 -360.04C270.64 -359.16 271.34 -357.27 270.34 -356.42C269.71 -355.87 268.7 -356.06 267.97 -355.63C267.23 -355.19 267.05 -354.21 266.87 -353.38C266.69 -352.54 266.34 -351.57 265.51 -351.33C264.68 -351.08 263.93 -351.62 263.14 -351.59C262.98 -351.59 262.78 -351.59 262.67 -351.69C262.64 -351.71 262.62 -351.75 262.61 -351.79C262.61 -351.51 262.61 -351.23 262.61 -350.96C262.6 -350.83 262.63 -350.7 262.7 -350.59C262.81 -350.46 263.01 -350.48 263.17 -350.48C263.96 -350.48 264.79 -349.99 265.54 -350.22C266.29 -350.45 266.73 -351.42 266.9 -352.27C267.08 -353.12 267.27 -354.06 268 -354.52C268.73 -354.98 269.71 -354.78 270.37 -355.31C271.37 -356.17 270.67 -358.05 271.64 -358.94C272.39 -359.62 273.59 -359.23 274.45 -358.71C275.31 -358.19 276.26 -357.53 277.23 -357.79C277.55 -357.91 277.86 -358.04 278.17 -358.19C279.71 -358.77 281.7 -357.78 282.96 -358.84C283.41 -359.29 283.74 -359.86 283.91 -360.49C284.26 -361.33 284.49 -362.22 284.61 -363.13C284.64 -363.43 284.64 -363.74 284.61 -364.05C284.46 -363.21 284.21 -362.38 283.88 -361.59C283.71 -360.97 283.38 -360.4 282.93 -359.94Z" id="g1kAcjMC31"></path><path d="M178.42 -161.86C178.42 -158.43 163.94 -155.65 146.09 -155.65C128.23 -155.65 113.76 -158.43 113.76 -161.86C113.76 -165.3 128.23 -168.08 146.09 -168.08C163.94 -168.08 178.42 -165.3 178.42 -161.86Z" id="duwV7Zjqg"></path><path d="M149.31 -164.5C149.31 -161.78 147.63 -159.57 145.55 -159.57C143.47 -159.57 141.79 -161.78 141.79 -164.5C141.79 -167.23 143.47 -169.43 145.55 -169.43C147.63 -169.43 149.31 -167.23 149.31 -164.5Z" id="c6RpbZm4p"></path><path d="M149.31 -170.52C149.31 -167.8 147.63 -165.59 145.55 -165.59C143.47 -165.59 141.79 -167.8 141.79 -170.52C141.79 -173.25 143.47 -175.45 145.55 -175.45C147.63 -175.45 149.31 -173.25 149.31 -170.52Z" id="eoLL3C5kj"></path><path d="M149.31 -176.54C149.31 -173.82 147.63 -171.61 145.55 -171.61C143.47 -171.61 141.79 -173.82 141.79 -176.54C141.79 -179.27 143.47 -181.47 145.55 -181.47C147.63 -181.47 149.31 -179.27 149.31 -176.54Z" id="c2Ul3voLVj"></path><path d="M149.31 -182.57C149.31 -179.85 147.63 -177.64 145.55 -177.64C143.47 -177.64 141.79 -179.85 141.79 -182.57C141.79 -185.3 143.47 -187.5 145.55 -187.5C147.63 -187.5 149.31 -185.3 149.31 -182.57Z" id="adG0BSUf"></path><path d="M149.31 -188.59C149.31 -185.87 147.63 -183.66 145.55 -183.66C143.47 -183.66 141.79 -185.87 141.79 -188.59C141.79 -191.32 143.47 -193.52 145.55 -193.52C147.63 -193.52 149.31 -191.32 149.31 -188.59Z" id="bJX5cgpZ"></path><path d="M149.31 -194.61C149.31 -191.89 147.63 -189.68 145.55 -189.68C143.47 -189.68 141.79 -191.89 141.79 -194.61C141.79 -197.34 143.47 -199.54 145.55 -199.54C147.63 -199.54 149.31 -197.34 149.31 -194.61Z" id="d1SqGBhzdv"></path><path d="M149.31 -200.63C149.31 -197.91 147.63 -195.7 145.55 -195.7C143.47 -195.7 141.79 -197.91 141.79 -200.63C141.79 -203.36 143.47 -205.56 145.55 -205.56C147.63 -205.56 149.31 -203.36 149.31 -200.63Z" id="a4t6AMij5q"></path><path d="M161.04 -243.92C160.38 -244.02 157.08 -244.56 151.15 -245.54C157.57 -245.49 161.13 -245.46 161.84 -245.46C163.92 -249.97 164.04 -255.13 162.19 -259.74C161.23 -259.25 156.45 -256.76 147.84 -252.3C155.8 -258.14 160.22 -261.39 161.1 -262.04C156.1 -270.65 145.07 -273.59 136.46 -268.59C127.84 -263.6 124.91 -252.56 129.91 -243.95C130.33 -243.22 130.8 -242.52 131.32 -241.86C130.52 -240.84 129.83 -239.74 129.27 -238.58C130.12 -238.13 134.4 -235.91 142.1 -231.91C133.89 -234.67 129.33 -236.2 128.41 -236.5C126.45 -230.73 127.55 -224.36 131.32 -219.57C125.16 -211.75 126.52 -200.41 134.34 -194.25C142.17 -188.1 153.51 -189.45 159.66 -197.28C164.81 -203.82 164.81 -213.03 159.66 -219.57C164.8 -226.11 164.8 -235.32 159.66 -241.86C160.15 -242.5 160.62 -243.19 161.04 -243.92Z" id="ckrEHiMdB"></path><path d="M131.3 -219.56C125.14 -211.73 126.49 -200.4 134.32 -194.24C142.15 -188.08 153.48 -189.44 159.64 -197.26C164.78 -203.8 164.78 -213.02 159.64 -219.56C162.06 -222.62 127.43 -232.73 127.43 -230.71C127.43 -226.66 128.79 -222.73 131.3 -219.56Z" id="a15bmN1KvO"></path><path d="M719.64 -104.19C719.64 -100.75 705.16 -97.97 687.3 -97.97C669.45 -97.97 654.97 -100.75 654.97 -104.19C654.97 -107.62 669.45 -110.41 687.3 -110.41C705.16 -110.41 719.64 -107.62 719.64 -104.19Z" id="ac5SO5ItS"></path><path d="M690.53 -106.83C690.53 -104.1 688.84 -101.9 686.77 -101.9C684.69 -101.9 683.01 -104.1 683.01 -106.83C683.01 -109.55 684.69 -111.76 686.77 -111.76C688.84 -111.76 690.53 -109.55 690.53 -106.83Z" id="a2fUqhfxWM"></path><path d="M690.53 -112.85C690.53 -110.12 688.84 -107.92 686.77 -107.92C684.69 -107.92 683.01 -110.12 683.01 -112.85C683.01 -115.57 684.69 -117.78 686.77 -117.78C688.84 -117.78 690.53 -115.57 690.53 -112.85Z" id="ap1orV6Pt"></path><path d="M690.53 -118.87C690.53 -116.14 688.84 -113.94 686.77 -113.94C684.69 -113.94 683.01 -116.14 683.01 -118.87C683.01 -121.59 684.69 -123.8 686.77 -123.8C688.84 -123.8 690.53 -121.59 690.53 -118.87Z" id="g1gehIomi3"></path><path d="M690.53 -124.9C690.53 -122.17 688.84 -119.97 686.77 -119.97C684.69 -119.97 683.01 -122.17 683.01 -124.9C683.01 -127.62 684.69 -129.83 686.77 -129.83C688.84 -129.83 690.53 -127.62 690.53 -124.9Z" id="aGw0xthOs"></path><path d="M690.53 -130.92C690.53 -128.19 688.84 -125.99 686.77 -125.99C684.69 -125.99 683.01 -128.19 683.01 -130.92C683.01 -133.64 684.69 -135.85 686.77 -135.85C688.84 -135.85 690.53 -133.64 690.53 -130.92Z" id="f68tRTSozV"></path><path d="M690.53 -136.94C690.53 -134.21 688.84 -132.01 686.77 -132.01C684.69 -132.01 683.01 -134.21 683.01 -136.94C683.01 -139.66 684.69 -141.87 686.77 -141.87C688.84 -141.87 690.53 -139.66 690.53 -136.94Z" id="f4r55MUGeH"></path><path d="M690.53 -142.96C690.53 -140.23 688.84 -138.03 686.77 -138.03C684.69 -138.03 683.01 -140.23 683.01 -142.96C683.01 -145.68 684.69 -147.89 686.77 -147.89C688.84 -147.89 690.53 -145.68 690.53 -142.96Z" id="a11buIfIlQ"></path><path d="M702.25 -186.24C701.59 -186.35 698.3 -186.89 692.37 -187.86C698.78 -187.81 702.35 -187.78 703.06 -187.78C705.13 -192.29 705.26 -197.46 703.41 -202.06C702.45 -201.57 697.67 -199.09 689.06 -194.62C697.01 -200.47 701.43 -203.71 702.32 -204.36C697.32 -212.98 686.29 -215.91 677.67 -210.91C669.06 -205.92 666.13 -194.89 671.12 -186.27C671.55 -185.54 672.02 -184.85 672.54 -184.18C671.74 -183.17 671.05 -182.07 670.48 -180.9C671.34 -180.45 675.62 -178.23 683.31 -174.23C675.1 -176.99 670.54 -178.52 669.63 -178.83C667.67 -173.06 668.76 -166.68 672.54 -161.9C666.38 -154.07 667.73 -142.73 675.56 -136.58C683.39 -130.42 694.72 -131.77 700.88 -139.6C706.02 -146.14 706.02 -155.35 700.88 -161.9C706.02 -168.44 706.02 -177.64 700.88 -184.18C701.37 -184.82 701.84 -185.52 702.25 -186.24Z" id="a43MMng9JM"></path><path d="M672.51 -161.88C666.36 -154.05 667.71 -142.72 675.54 -136.56C683.36 -130.4 694.7 -131.76 700.85 -139.58C706 -146.13 706 -155.34 700.85 -161.88C703.27 -164.95 668.65 -175.05 668.65 -173.03C668.64 -168.98 670.01 -165.05 672.51 -161.88Z" id="aavXhYGr3"></path><path d="M264.15 -546.76C257.49 -546.76 252.09 -541.36 252.09 -534.7C252.09 -528.03 257.49 -522.63 264.15 -522.63C270.82 -522.63 276.22 -528.03 276.22 -534.7C276.22 -541.36 270.82 -546.76 264.15 -546.76Z" id="c29ms5Ofjs"></path><path d="M307.32 -608.72C296.14 -608.72 287.09 -599.66 287.09 -588.49C287.09 -577.32 296.14 -568.27 307.32 -568.27C318.49 -568.27 327.54 -577.32 327.54 -588.49C327.54 -599.66 318.49 -608.72 307.32 -608.72Z" id="b6QaxopZe"></path><path d="M280.55 -510.57C269.38 -510.57 260.32 -501.52 260.32 -490.35C260.32 -479.18 269.38 -470.12 280.55 -470.12C291.72 -470.12 300.77 -479.18 300.77 -490.35C300.77 -501.52 291.72 -510.57 280.55 -510.57Z" id="e1e85K4sjN"></path><path d="M706.21 -401.38C699.55 -401.38 694.15 -395.98 694.15 -389.32C694.15 -382.65 699.55 -377.25 706.21 -377.25C712.87 -377.25 718.28 -382.65 718.28 -389.32C718.28 -395.98 712.87 -401.38 706.21 -401.38Z" id="e1Y6biP5le"></path><path d="M663.04 -463.34C651.87 -463.34 642.81 -454.29 642.81 -443.12C642.81 -431.94 651.87 -422.89 663.04 -422.89C674.21 -422.89 683.27 -431.94 683.27 -443.12C683.27 -454.29 674.21 -463.34 663.04 -463.34Z" id="f9QuLXsbs"></path><path d="M689.82 -365.2C678.65 -365.2 669.59 -356.14 669.59 -344.97C669.59 -333.8 678.65 -324.74 689.82 -324.74C700.99 -324.74 710.04 -333.8 710.04 -344.97C710.04 -356.14 700.99 -365.2 689.82 -365.2Z" id="a1XlDyStHC"></path><path d="M24.23 -374.3C20.46 -374.3 17.4 -371.24 17.4 -367.46C17.4 -363.69 20.46 -360.63 24.23 -360.63C28.01 -360.63 31.07 -363.69 31.07 -367.46C31.07 -371.24 28.01 -374.3 24.23 -374.3Z" id="a9ymvaQxz"></path><path d="M53.53 -404.79C47.2 -404.79 42.07 -399.66 42.07 -393.33C42.07 -387 47.2 -381.87 53.53 -381.87C59.86 -381.87 64.99 -387 64.99 -393.33C64.99 -399.66 59.86 -404.79 53.53 -404.79Z" id="d2k8RQRMuW"></path><path d="M-1.3 -387.02C-7.63 -387.02 -12.76 -381.89 -12.76 -375.56C-12.76 -369.23 -7.63 -364.11 -1.3 -364.11C5.02 -364.11 10.15 -369.23 10.15 -375.56C10.15 -381.89 5.02 -387.02 -1.3 -387.02Z" id="a1ByTRGIKI"></path><path d="M530.68 -415.38C526.91 -415.38 523.85 -412.32 523.85 -408.55C523.85 -404.77 526.91 -401.71 530.68 -401.71C534.46 -401.71 537.52 -404.77 537.52 -408.55C537.52 -412.32 534.46 -415.38 530.68 -415.38Z" id="aC8J0DT5g"></path><path d="M559.98 -445.87C553.65 -445.87 548.52 -440.74 548.52 -434.42C548.52 -428.09 553.65 -422.96 559.98 -422.96C566.31 -422.96 571.44 -428.09 571.44 -434.42C571.44 -440.74 566.31 -445.87 559.98 -445.87Z" id="csUys32Es"></path><path d="M505.15 -428.1C498.82 -428.1 493.69 -422.97 493.69 -416.65C493.69 -410.32 498.82 -405.19 505.15 -405.19C511.48 -405.19 516.6 -410.32 516.6 -416.65C516.6 -422.97 511.48 -428.1 505.15 -428.1Z" id="a8sjG2TBbK"></path><path d="M115.73 -524.91C99.91 -524.91 87.09 -512.09 87.09 -496.27C87.09 -480.45 99.91 -467.63 115.73 -467.63C131.55 -467.63 144.37 -480.45 144.37 -496.27C144.37 -512.09 131.55 -524.91 115.73 -524.91Z" id="a6MD0TJlC"></path><path d="M279.28 -417.99C270.15 -417.99 262.75 -410.59 262.75 -401.46C262.75 -392.33 270.15 -384.93 279.28 -384.93C288.41 -384.93 295.81 -392.33 295.81 -401.46C295.81 -410.59 288.41 -417.99 279.28 -417.99Z" id="dKCPd1ubC"></path><path d="M442.83 -310.54C433.7 -310.54 426.3 -303.14 426.3 -294.01C426.3 -284.88 433.7 -277.48 442.83 -277.48C451.96 -277.48 459.36 -284.88 459.36 -294.01C459.36 -303.14 451.96 -310.54 442.83 -310.54Z" id="b46CwzmNLh"></path><path d="M240.51 -159.49C240.51 -149.02 198.23 -140.53 146.09 -140.53C93.94 -140.53 51.67 -149.02 51.67 -159.49C51.67 -169.97 93.94 -178.46 146.09 -178.46C198.23 -178.46 240.51 -169.97 240.51 -159.49Z" id="bQ2oO5Uot"></path><path d="M781.72 -103.4C781.72 -92.92 739.45 -84.44 687.3 -84.44C635.16 -84.44 592.89 -92.92 592.89 -103.4C592.89 -113.87 635.16 -122.36 687.3 -122.36C739.45 -122.36 781.72 -113.87 781.72 -103.4Z" id="c3w5sclSIf"></path><path d="M133.84 -103.4C133.84 -92.92 91.57 -84.44 39.43 -84.44C-12.72 -84.44 -54.99 -92.92 -54.99 -103.4C-54.99 -113.87 -12.72 -122.36 39.43 -122.36C91.57 -122.36 133.84 -113.87 133.84 -103.4Z" id="a220QLtoay"></path></defs><g><g><use xlink:href="#adrHOixwL" opacity="1" fill="#f2f2f2" fill-opacity="0"></use></g><g><use xlink:href="#d1NiVjrmfg" opacity="1" fill="#000000" fill-opacity="0"></use><g><use xlink:href="#d1NiVjrmfg" opacity="1" fill-opacity="0" stroke="#444053" stroke-width="1" stroke-opacity="1"></use></g></g><g><use xlink:href="#l160Kv48UG" opacity="1" fill="url(#gradientc2JdpDxLXt)"></use><g><use xlink:href="#l160Kv48UG" opacity="1" fill-opacity="0" stroke="#000000" stroke-width="1" stroke-opacity="0"></use></g></g><g><use xlink:href="#aTcb4mbtd" opacity="1" fill="#444053" fill-opacity="1"></use><g><use xlink:href="#aTcb4mbtd" opacity="1" fill-opacity="0" stroke="#000000" stroke-width="1" stroke-opacity="0"></use></g></g><g><use xlink:href="#d2vnPIeAoH" opacity="1" fill="#000000" fill-opacity="1"></use><g><use xlink:href="#d2vnPIeAoH" opacity="1" fill-opacity="0" stroke="#000000" stroke-width="1" stroke-opacity="0"></use></g></g><g><use xlink:href="#a51cacOWx" opacity="1" fill="#000000" fill-opacity="1"></use><g><use xlink:href="#a51cacOWx" opacity="1" fill-opacity="0" stroke="#000000" stroke-width="1" stroke-opacity="0"></use></g></g><g><use xlink:href="#e3jMElhn0o" opacity="1" fill="#3f3d56" fill-opacity="1"></use><g><use xlink:href="#e3jMElhn0o" opacity="1" fill-opacity="0" stroke="#000000" stroke-width="1" stroke-opacity="0"></use></g></g><g><use xlink:href="#eDHMHzBk4" opacity="1" fill="#000000" fill-opacity="1"></use><g><use xlink:href="#eDHMHzBk4" opacity="1" fill-opacity="0" stroke="#000000" stroke-width="1" stroke-opacity="0"></use></g></g><g><use xlink:href="#l1WxVKXcj" opacity="1" fill="#000000" fill-opacity="1"></use><g><use xlink:href="#l1WxVKXcj" opacity="1" fill-opacity="0" stroke="#000000" stroke-width="1" stroke-opacity="0"></use></g></g><g><use xlink:href="#h18tcVzvQQ" opacity="1" fill="#000000" fill-opacity="1"></use><g><use xlink:href="#h18tcVzvQQ" opacity="1" fill-opacity="0" stroke="#000000" stroke-width="1" stroke-opacity="0"></use></g></g><g><use xlink:href="#e5kdjW491" opacity="1" fill="#000000" fill-opacity="1"></use><g><use xlink:href="#e5kdjW491" opacity="1" fill-opacity="0" stroke="#000000" stroke-width="1" stroke-opacity="0"></use></g></g><g><use xlink:href="#a577vjA88m" opacity="1" fill="#000000" fill-opacity="1"></use><g><use xlink:href="#a577vjA88m" opacity="1" fill-opacity="0" stroke="#000000" stroke-width="1" stroke-opacity="0"></use></g></g><g><use xlink:href="#b4vS7JAsnv" opacity="1" fill="#000000" fill-opacity="1"></use><g><use xlink:href="#b4vS7JAsnv" opacity="1" fill-opacity="0" stroke="#000000" stroke-width="1" stroke-opacity="0"></use></g></g><g><use xlink:href="#bBjL2t36p" opacity="1" fill="#000000" fill-opacity="1"></use><g><use xlink:href="#bBjL2t36p" opacity="1" fill-opacity="0" stroke="#000000" stroke-width="1" stroke-opacity="0"></use></g></g><g><use xlink:href="#boN4ZKz8e" opacity="1" fill="#000000" fill-opacity="1"></use><g><use xlink:href="#boN4ZKz8e" opacity="1" fill-opacity="0" stroke="#000000" stroke-width="1" stroke-opacity="0"></use></g></g><g><use xlink:href="#a5psh5RfX1" opacity="1" fill="#000000" fill-opacity="1"></use><g><use xlink:href="#a5psh5RfX1" opacity="1" fill-opacity="0" stroke="#000000" stroke-width="1" stroke-opacity="0"></use></g></g><g><use xlink:href="#bmiwu9WvR" opacity="1" fill="#000000" fill-opacity="1"></use><g><use xlink:href="#bmiwu9WvR" opacity="1" fill-opacity="0" stroke="#000000" stroke-width="1" stroke-opacity="0"></use></g></g><g><use xlink:href="#e7qL9Plo" opacity="1" fill="#444053" fill-opacity="1"></use><g><use xlink:href="#e7qL9Plo" opacity="1" fill-opacity="0" stroke="#000000" stroke-width="1" stroke-opacity="0"></use></g></g><g><use xlink:href="#c7wUmAtRzc" opacity="1" fill="#000000" fill-opacity="1"></use><g><use xlink:href="#c7wUmAtRzc" opacity="1" fill-opacity="0" stroke="#000000" stroke-width="1" stroke-opacity="0"></use></g></g><g><use xlink:href="#aNkQvHVwp" opacity="1" fill="#000000" fill-opacity="1"></use><g><use xlink:href="#aNkQvHVwp" opacity="1" fill-opacity="0" stroke="#000000" stroke-width="1" stroke-opacity="0"></use></g></g><g><use xlink:href="#c1R61Jrxe4" opacity="1" fill="#a1616a" fill-opacity="1"></use><g><use xlink:href="#c1R61Jrxe4" opacity="1" fill-opacity="0" stroke="#000000" stroke-width="1" stroke-opacity="0"></use></g></g><g><use xlink:href="#a4QMldyDbe" opacity="1" fill="#0b6e4f" fill-opacity="1"></use><g><use xlink:href="#a4QMldyDbe" opacity="1" fill-opacity="0" stroke="#000000" stroke-width="1" stroke-opacity="0"></use></g></g><g><use xlink:href="#a3E3RBES0" opacity="1" fill="#000000" fill-opacity="1"></use><g><use xlink:href="#a3E3RBES0" opacity="1" fill-opacity="0" stroke="#000000" stroke-width="1" stroke-opacity="0"></use></g></g><g><use xlink:href="#f2HYytjnIZ" opacity="1" fill="#000000" fill-opacity="0"></use><g><use xlink:href="#f2HYytjnIZ" opacity="1" fill-opacity="0" stroke="#444053" stroke-width="1" stroke-opacity="1"></use></g></g><g><use xlink:href="#ekfffZpkd" opacity="1" fill="#444053" fill-opacity="1"></use><g><use xlink:href="#ekfffZpkd" opacity="1" fill-opacity="0" stroke="#000000" stroke-width="1" stroke-opacity="0"></use></g></g><g><use xlink:href="#baWKBiIc5" opacity="1" fill="#d0d2d5" fill-opacity="1"></use><g><use xlink:href="#baWKBiIc5" opacity="1" fill-opacity="0" stroke="#000000" stroke-width="1" stroke-opacity="0"></use></g></g><g><use xlink:href="#a2yEaYfiBx" opacity="1" fill="#3f3d56" fill-opacity="1"></use><g><use xlink:href="#a2yEaYfiBx" opacity="1" fill-opacity="0" stroke="#000000" stroke-width="1" stroke-opacity="0"></use></g></g><g><use xlink:href="#c15OQ9sdkh" opacity="1" fill="#d0d2d5" fill-opacity="1"></use><g><use xlink:href="#c15OQ9sdkh" opacity="1" fill-opacity="0" stroke="#000000" stroke-width="1" stroke-opacity="0"></use></g></g><g><use xlink:href="#a9K386pX6" opacity="1" fill="#000000" fill-opacity="1"></use><g><use xlink:href="#a9K386pX6" opacity="1" fill-opacity="0" stroke="#000000" stroke-width="1" stroke-opacity="0"></use></g></g><g><use xlink:href="#aIczOs4ZR" opacity="1" fill="#d0d2d5" fill-opacity="1"></use><g><use xlink:href="#aIczOs4ZR" opacity="1" fill-opacity="0" stroke="#000000" stroke-width="1" stroke-opacity="0"></use></g></g><g><use xlink:href="#axmq8dZmn" opacity="1" fill="#d0d2d5" fill-opacity="1"></use><g><use xlink:href="#axmq8dZmn" opacity="1" fill-opacity="0" stroke="#000000" stroke-width="1" stroke-opacity="0"></use></g></g><g><use xlink:href="#a156J6rDUP" opacity="1" fill="#444053" fill-opacity="1"></use><g><use xlink:href="#a156J6rDUP" opacity="1" fill-opacity="0" stroke="#000000" stroke-width="1" stroke-opacity="0"></use></g></g><g><use xlink:href="#h15WBhSHa9" opacity="1" fill="#000000" fill-opacity="1"></use><g><use xlink:href="#h15WBhSHa9" opacity="1" fill-opacity="0" stroke="#000000" stroke-width="1" stroke-opacity="0"></use></g></g><g><use xlink:href="#l5vJfAGToz" opacity="1" fill="#444053" fill-opacity="1"></use><g><use xlink:href="#l5vJfAGToz" opacity="1" fill-opacity="0" stroke="#000000" stroke-width="1" stroke-opacity="0"></use></g></g><g><use xlink:href="#aiLsUkfj8" opacity="1" fill="url(#gradientaKQpnpPTK)"></use><g><use xlink:href="#aiLsUkfj8" opacity="1" fill-opacity="0" stroke="#000000" stroke-width="1" stroke-opacity="0"></use></g></g><g><use xlink:href="#c3yrSGH3tF" opacity="1" fill="#fabdbd" fill-opacity="1"></use><g><use xlink:href="#c3yrSGH3tF" opacity="1" fill-opacity="0" stroke="#000000" stroke-width="1" stroke-opacity="0"></use></g></g><g><use xlink:href="#eiXpN4l9d" opacity="1" fill="#fabdbd" fill-opacity="1"></use><g><use xlink:href="#eiXpN4l9d" opacity="1" fill-opacity="0" stroke="#000000" stroke-width="1" stroke-opacity="0"></use></g></g><g><use xlink:href="#b1pZuMkLH" opacity="1" fill="#fabdbd" fill-opacity="1"></use><g><use xlink:href="#b1pZuMkLH" opacity="1" fill-opacity="0" stroke="#000000" stroke-width="1" stroke-opacity="0"></use></g></g><g><use xlink:href="#a1pE3rJP7Z" opacity="1" fill="#fabdbd" fill-opacity="1"></use><g><use xlink:href="#a1pE3rJP7Z" opacity="1" fill-opacity="0" stroke="#000000" stroke-width="1" stroke-opacity="0"></use></g></g><g><use xlink:href="#bSxLnOhB" opacity="1" fill="#3f3d56" fill-opacity="1"></use><g><use xlink:href="#bSxLnOhB" opacity="1" fill-opacity="0" stroke="#000000" stroke-width="1" stroke-opacity="0"></use></g></g><g><use xlink:href="#bV9rNAll" opacity="1" fill="#000000" fill-opacity="1"></use><g><use xlink:href="#bV9rNAll" opacity="1" fill-opacity="0" stroke="#000000" stroke-width="1" stroke-opacity="0"></use></g></g><g><use xlink:href="#d1E2CoTXna" opacity="1" fill="#0b6e4f" fill-opacity="1"></use><g><use xlink:href="#d1E2CoTXna" opacity="1" fill-opacity="0" stroke="#000000" stroke-width="1" stroke-opacity="0"></use></g></g><g><use xlink:href="#f7jl890ELI" opacity="1" fill="#0b6e4f" fill-opacity="1"></use><g><use xlink:href="#f7jl890ELI" opacity="1" fill-opacity="0" stroke="#000000" stroke-width="1" stroke-opacity="0"></use></g></g><g><use xlink:href="#c2WkCyO1Ri" opacity="1" fill="#fabdbd" fill-opacity="1"></use><g><use xlink:href="#c2WkCyO1Ri" opacity="1" fill-opacity="0" stroke="#000000" stroke-width="1" stroke-opacity="0"></use></g></g><g><use xlink:href="#b1dxKQMYKD" opacity="1" fill="#0b6e4f" fill-opacity="1"></use><g><use xlink:href="#b1dxKQMYKD" opacity="1" fill-opacity="0" stroke="#000000" stroke-width="1" stroke-opacity="0"></use></g></g><g><use xlink:href="#a2WNEUp2uI" opacity="1" fill="#3f3d56" fill-opacity="1"></use><g><use xlink:href="#a2WNEUp2uI" opacity="1" fill-opacity="0" stroke="#000000" stroke-width="1" stroke-opacity="0"></use></g></g><g><use xlink:href="#d2nb1Szz5h" opacity="1" fill="#000000" fill-opacity="1"></use><g><use xlink:href="#d2nb1Szz5h" opacity="1" fill-opacity="0" stroke="#000000" stroke-width="1" stroke-opacity="0"></use></g></g><g><use xlink:href="#b1k4YhBZXD" opacity="1" fill="#3f3d56" fill-opacity="1"></use><g><use xlink:href="#b1k4YhBZXD" opacity="1" fill-opacity="0" stroke="#000000" stroke-width="1" stroke-opacity="0"></use></g></g><g><use xlink:href="#d1Mu5vIIUR" opacity="1" fill="#a1616a" fill-opacity="1"></use><g><use xlink:href="#d1Mu5vIIUR" opacity="1" fill-opacity="0" stroke="#000000" stroke-width="1" stroke-opacity="0"></use></g></g><g><use xlink:href="#a2oONF1C6Z" opacity="1" fill="#000000" fill-opacity="1"></use><g><use xlink:href="#a2oONF1C6Z" opacity="1" fill-opacity="0" stroke="#000000" stroke-width="1" stroke-opacity="0"></use></g></g><g><use xlink:href="#b1BWxNCHxg" opacity="1" fill="#a1616a" fill-opacity="1"></use><g><use xlink:href="#b1BWxNCHxg" opacity="1" fill-opacity="0" stroke="#000000" stroke-width="1" stroke-opacity="0"></use></g></g><g><use xlink:href="#fgrfC1emK" opacity="1" fill="#000000" fill-opacity="1"></use><g><use xlink:href="#fgrfC1emK" opacity="1" fill-opacity="0" stroke="#000000" stroke-width="1" stroke-opacity="0"></use></g></g><g><use xlink:href="#g5UB3Yr9aU" opacity="1" fill="#444053" fill-opacity="1"></use><g><use xlink:href="#g5UB3Yr9aU" opacity="1" fill-opacity="0" stroke="#000000" stroke-width="1" stroke-opacity="0"></use></g></g><g><use xlink:href="#bmmaZDNdh" opacity="1" fill="#000000" fill-opacity="1"></use><g><use xlink:href="#bmmaZDNdh" opacity="1" fill-opacity="0" stroke="#000000" stroke-width="1" stroke-opacity="0"></use></g></g><g><use xlink:href="#a4CCI5uFP7" opacity="1" fill="#444053" fill-opacity="1"></use><g><use xlink:href="#a4CCI5uFP7" opacity="1" fill-opacity="0" stroke="#000000" stroke-width="1" stroke-opacity="0"></use></g></g><g><use xlink:href="#d2HbYGeI7v" opacity="1" fill="#000000" fill-opacity="1"></use><g><use xlink:href="#d2HbYGeI7v" opacity="1" fill-opacity="0" stroke="#000000" stroke-width="1" stroke-opacity="0"></use></g></g><g><use xlink:href="#b2OohHyXLb" opacity="1" fill="#444053" fill-opacity="1"></use><g><use xlink:href="#b2OohHyXLb" opacity="1" fill-opacity="0" stroke="#000000" stroke-width="1" stroke-opacity="0"></use></g></g><g><use xlink:href="#bqm5K0zzi" opacity="1" fill="#000000" fill-opacity="1"></use><g><use xlink:href="#bqm5K0zzi" opacity="1" fill-opacity="0" stroke="#000000" stroke-width="1" stroke-opacity="0"></use></g></g><g><use xlink:href="#dKG6GVb7F" opacity="1" fill="#0b6e4f" fill-opacity="1"></use><g><use xlink:href="#dKG6GVb7F" opacity="1" fill-opacity="0" stroke="#000000" stroke-width="1" stroke-opacity="0"></use></g></g><g><use xlink:href="#b10lG37mly" opacity="1" fill="#000000" fill-opacity="1"></use><g><use xlink:href="#b10lG37mly" opacity="1" fill-opacity="0" stroke="#000000" stroke-width="1" stroke-opacity="0"></use></g></g><g><use xlink:href="#d1su62Zzdz" opacity="1" fill="#000000" fill-opacity="1"></use><g><use xlink:href="#d1su62Zzdz" opacity="1" fill-opacity="0" stroke="#000000" stroke-width="1" stroke-opacity="0"></use></g></g><g><use xlink:href="#a1XO8k39n" opacity="1" fill="#0b6e4f" fill-opacity="1"></use><g><use xlink:href="#a1XO8k39n" opacity="1" fill-opacity="0" stroke="#000000" stroke-width="1" stroke-opacity="0"></use></g></g><g><use xlink:href="#alJ7iAl2E" opacity="1" fill="#a1616a" fill-opacity="1"></use><g><use xlink:href="#alJ7iAl2E" opacity="1" fill-opacity="0" stroke="#000000" stroke-width="1" stroke-opacity="0"></use></g></g><g><use xlink:href="#aafQrRLXL" opacity="1" fill="#000000" fill-opacity="1"></use><g><use xlink:href="#aafQrRLXL" opacity="1" fill-opacity="0" stroke="#000000" stroke-width="1" stroke-opacity="0"></use></g></g><g><use xlink:href="#b3DtA7Q6a" opacity="1" fill="#000000" fill-opacity="1"></use><g><use xlink:href="#b3DtA7Q6a" opacity="1" fill-opacity="0" stroke="#000000" stroke-width="1" stroke-opacity="0"></use></g></g><g><use xlink:href="#bceF47Xqu" opacity="1" fill="#3f3d56" fill-opacity="1"></use><g><use xlink:href="#bceF47Xqu" opacity="1" fill-opacity="0" stroke="#000000" stroke-width="1" stroke-opacity="0"></use></g></g><g><use xlink:href="#b1jUH18t29" opacity="1" fill="#000000" fill-opacity="1"></use><g><use xlink:href="#b1jUH18t29" opacity="1" fill-opacity="0" stroke="#000000" stroke-width="1" stroke-opacity="0"></use></g></g><g><use xlink:href="#ch5ZgjQIH" opacity="1" fill="#0b6e4f" fill-opacity="1"></use><g><use xlink:href="#ch5ZgjQIH" opacity="1" fill-opacity="0" stroke="#000000" stroke-width="1" stroke-opacity="0"></use></g></g><g><use xlink:href="#b20iwdAh2" opacity="1" fill="#000000" fill-opacity="1"></use><g><use xlink:href="#b20iwdAh2" opacity="1" fill-opacity="0" stroke="#000000" stroke-width="1" stroke-opacity="0"></use></g></g><g><use xlink:href="#a6pKuaZmj" opacity="1" fill="#000000" fill-opacity="1"></use><g><use xlink:href="#a6pKuaZmj" opacity="1" fill-opacity="0" stroke="#000000" stroke-width="1" stroke-opacity="0"></use></g></g><g><use xlink:href="#g1kAcjMC31" opacity="1" fill="#000000" fill-opacity="1"></use><g><use xlink:href="#g1kAcjMC31" opacity="1" fill-opacity="0" stroke="#000000" stroke-width="1" stroke-opacity="0"></use></g></g><g><use xlink:href="#duwV7Zjqg" opacity="1" fill="#0b6e4f" fill-opacity="1"></use><g><use xlink:href="#duwV7Zjqg" opacity="1" fill-opacity="0" stroke="#000000" stroke-width="1" stroke-opacity="0"></use></g></g><g><use xlink:href="#c6RpbZm4p" opacity="1" fill="#3f3d56" fill-opacity="1"></use><g><use xlink:href="#c6RpbZm4p" opacity="1" fill-opacity="0" stroke="#000000" stroke-width="1" stroke-opacity="0"></use></g></g><g><use xlink:href="#eoLL3C5kj" opacity="1" fill="#3f3d56" fill-opacity="1"></use><g><use xlink:href="#eoLL3C5kj" opacity="1" fill-opacity="0" stroke="#000000" stroke-width="1" stroke-opacity="0"></use></g></g><g><use xlink:href="#c2Ul3voLVj" opacity="1" fill="#3f3d56" fill-opacity="1"></use><g><use xlink:href="#c2Ul3voLVj" opacity="1" fill-opacity="0" stroke="#000000" stroke-width="1" stroke-opacity="0"></use></g></g><g><use xlink:href="#adG0BSUf" opacity="1" fill="#3f3d56" fill-opacity="1"></use><g><use xlink:href="#adG0BSUf" opacity="1" fill-opacity="0" stroke="#000000" stroke-width="1" stroke-opacity="0"></use></g></g><g><use xlink:href="#bJX5cgpZ" opacity="1" fill="#3f3d56" fill-opacity="1"></use><g><use xlink:href="#bJX5cgpZ" opacity="1" fill-opacity="0" stroke="#000000" stroke-width="1" stroke-opacity="0"></use></g></g><g><use xlink:href="#d1SqGBhzdv" opacity="1" fill="#3f3d56" fill-opacity="1"></use><g><use xlink:href="#d1SqGBhzdv" opacity="1" fill-opacity="0" stroke="#000000" stroke-width="1" stroke-opacity="0"></use></g></g><g><use xlink:href="#a4t6AMij5q" opacity="1" fill="#3f3d56" fill-opacity="1"></use><g><use xlink:href="#a4t6AMij5q" opacity="1" fill-opacity="0" stroke="#000000" stroke-width="1" stroke-opacity="0"></use></g></g><g><use xlink:href="#ckrEHiMdB" opacity="1" fill="#0b6e4f" fill-opacity="1"></use><g><use xlink:href="#ckrEHiMdB" opacity="1" fill-opacity="0" stroke="#000000" stroke-width="1" stroke-opacity="0"></use></g></g><g><use xlink:href="#a15bmN1KvO" opacity="1" fill="#000000" fill-opacity="1"></use><g><use xlink:href="#a15bmN1KvO" opacity="1" fill-opacity="0" stroke="#000000" stroke-width="1" stroke-opacity="0"></use></g></g><g><use xlink:href="#ac5SO5ItS" opacity="1" fill="#0b6e4f" fill-opacity="1"></use><g><use xlink:href="#ac5SO5ItS" opacity="1" fill-opacity="0" stroke="#000000" stroke-width="1" stroke-opacity="0"></use></g></g><g><use xlink:href="#a2fUqhfxWM" opacity="1" fill="#3f3d56" fill-opacity="1"></use><g><use xlink:href="#a2fUqhfxWM" opacity="1" fill-opacity="0" stroke="#000000" stroke-width="1" stroke-opacity="0"></use></g></g><g><use xlink:href="#ap1orV6Pt" opacity="1" fill="#3f3d56" fill-opacity="1"></use><g><use xlink:href="#ap1orV6Pt" opacity="1" fill-opacity="0" stroke="#000000" stroke-width="1" stroke-opacity="0"></use></g></g><g><use xlink:href="#g1gehIomi3" opacity="1" fill="#3f3d56" fill-opacity="1"></use><g><use xlink:href="#g1gehIomi3" opacity="1" fill-opacity="0" stroke="#000000" stroke-width="1" stroke-opacity="0"></use></g></g><g><use xlink:href="#aGw0xthOs" opacity="1" fill="#3f3d56" fill-opacity="1"></use><g><use xlink:href="#aGw0xthOs" opacity="1" fill-opacity="0" stroke="#000000" stroke-width="1" stroke-opacity="0"></use></g></g><g><use xlink:href="#f68tRTSozV" opacity="1" fill="#3f3d56" fill-opacity="1"></use><g><use xlink:href="#f68tRTSozV" opacity="1" fill-opacity="0" stroke="#000000" stroke-width="1" stroke-opacity="0"></use></g></g><g><use xlink:href="#f4r55MUGeH" opacity="1" fill="#3f3d56" fill-opacity="1"></use><g><use xlink:href="#f4r55MUGeH" opacity="1" fill-opacity="0" stroke="#000000" stroke-width="1" stroke-opacity="0"></use></g></g><g><use xlink:href="#a11buIfIlQ" opacity="1" fill="#3f3d56" fill-opacity="1"></use><g><use xlink:href="#a11buIfIlQ" opacity="1" fill-opacity="0" stroke="#000000" stroke-width="1" stroke-opacity="0"></use></g></g><g><use xlink:href="#a43MMng9JM" opacity="1" fill="#0b6e4f" fill-opacity="1"></use><g><use xlink:href="#a43MMng9JM" opacity="1" fill-opacity="0" stroke="#000000" stroke-width="1" stroke-opacity="0"></use></g></g><g><use xlink:href="#aavXhYGr3" opacity="1" fill="#000000" fill-opacity="1"></use><g><use xlink:href="#aavXhYGr3" opacity="1" fill-opacity="0" stroke="#000000" stroke-width="1" stroke-opacity="0"></use></g></g><g><use xlink:href="#c29ms5Ofjs" opacity="1" fill="#0b6e4f" fill-opacity="1"></use><g><use xlink:href="#c29ms5Ofjs" opacity="1" fill-opacity="0" stroke="#000000" stroke-width="1" stroke-opacity="0"></use></g></g><g><use xlink:href="#b6QaxopZe" opacity="1" fill="#0b6e4f" fill-opacity="1"></use><g><use xlink:href="#b6QaxopZe" opacity="1" fill-opacity="0" stroke="#000000" stroke-width="1" stroke-opacity="0"></use></g></g><g><use xlink:href="#e1e85K4sjN" opacity="1" fill="#0b6e4f" fill-opacity="1"></use><g><use xlink:href="#e1e85K4sjN" opacity="1" fill-opacity="0" stroke="#000000" stroke-width="1" stroke-opacity="0"></use></g></g><g><use xlink:href="#e1Y6biP5le" opacity="1" fill="#0b6e4f" fill-opacity="1"></use><g><use xlink:href="#e1Y6biP5le" opacity="1" fill-opacity="0" stroke="#000000" stroke-width="1" stroke-opacity="0"></use></g></g><g><use xlink:href="#f9QuLXsbs" opacity="1" fill="#0b6e4f" fill-opacity="1"></use><g><use xlink:href="#f9QuLXsbs" opacity="1" fill-opacity="0" stroke="#000000" stroke-width="1" stroke-opacity="0"></use></g></g><g><use xlink:href="#a1XlDyStHC" opacity="1" fill="#0b6e4f" fill-opacity="1"></use><g><use xlink:href="#a1XlDyStHC" opacity="1" fill-opacity="0" stroke="#000000" stroke-width="1" stroke-opacity="0"></use></g></g><g><use xlink:href="#a9ymvaQxz" opacity="1" fill="#0b6e4f" fill-opacity="1"></use><g><use xlink:href="#a9ymvaQxz" opacity="1" fill-opacity="0" stroke="#000000" stroke-width="1" stroke-opacity="0"></use></g></g><g><use xlink:href="#d2k8RQRMuW" opacity="1" fill="#0b6e4f" fill-opacity="1"></use><g><use xlink:href="#d2k8RQRMuW" opacity="1" fill-opacity="0" stroke="#000000" stroke-width="1" stroke-opacity="0"></use></g></g><g><use xlink:href="#a1ByTRGIKI" opacity="1" fill="#0b6e4f" fill-opacity="1"></use><g><use xlink:href="#a1ByTRGIKI" opacity="1" fill-opacity="0" stroke="#000000" stroke-width="1" stroke-opacity="0"></use></g></g><g><use xlink:href="#aC8J0DT5g" opacity="1" fill="#0b6e4f" fill-opacity="1"></use><g><use xlink:href="#aC8J0DT5g" opacity="1" fill-opacity="0" stroke="#000000" stroke-width="1" stroke-opacity="0"></use></g></g><g><use xlink:href="#csUys32Es" opacity="1" fill="#0b6e4f" fill-opacity="1"></use><g><use xlink:href="#csUys32Es" opacity="1" fill-opacity="0" stroke="#000000" stroke-width="1" stroke-opacity="0"></use></g></g><g><use xlink:href="#a8sjG2TBbK" opacity="1" fill="#0b6e4f" fill-opacity="1"></use><g><use xlink:href="#a8sjG2TBbK" opacity="1" fill-opacity="0" stroke="#000000" stroke-width="1" stroke-opacity="0"></use></g></g><g><use xlink:href="#a6MD0TJlC" opacity="1" fill="#0b6e4f" fill-opacity="1"></use><g><use xlink:href="#a6MD0TJlC" opacity="1" fill-opacity="0" stroke="#000000" stroke-width="1" stroke-opacity="0"></use></g></g><g><use xlink:href="#dKCPd1ubC" opacity="1" fill="#0b6e4f" fill-opacity="1"></use><g><use xlink:href="#dKCPd1ubC" opacity="1" fill-opacity="0" stroke="#000000" stroke-width="1" stroke-opacity="0"></use></g></g><g><use xlink:href="#b46CwzmNLh" opacity="1" fill="#0b6e4f" fill-opacity="1"></use><g><use xlink:href="#b46CwzmNLh" opacity="1" fill-opacity="0" stroke="#000000" stroke-width="1" stroke-opacity="0"></use></g></g><g><use xlink:href="#bQ2oO5Uot" opacity="1" fill="#000000" fill-opacity="0"></use><g><use xlink:href="#bQ2oO5Uot" opacity="1" fill-opacity="0" stroke="#444053" stroke-width="1" stroke-opacity="1"></use></g></g><g><use xlink:href="#c3w5sclSIf" opacity="1" fill="#000000" fill-opacity="0"></use><g><use xlink:href="#c3w5sclSIf" opacity="1" fill-opacity="0" stroke="#444053" stroke-width="1" stroke-opacity="1"></use></g></g><g><use xlink:href="#a220QLtoay" opacity="1" fill="#000000" fill-opacity="0"></use><g><use xlink:href="#a220QLtoay" opacity="1" fill-opacity="0" stroke="#444053" stroke-width="1" stroke-opacity="1"></use></g></g></g></svg>